<svg width="103" height="54" viewBox="0 0 103 54" fill="none" xmlns="http://www.w3.org/2000/svg">
<g opacity="0.1">
<ellipse cx="3.30729" cy="3.31793" rx="3.30729" ry="3.31793" transform="matrix(1 8.77039e-08 8.71425e-08 -1 0 7.02631)" fill="black"/>
<ellipse cx="3.30729" cy="3.31793" rx="3.30729" ry="3.31793" transform="matrix(1 8.77039e-08 8.71425e-08 -1 24 7.02631)" fill="black"/>
<ellipse cx="3.30729" cy="3.31793" rx="3.30729" ry="3.31793" transform="matrix(1 8.77039e-08 8.71425e-08 -1 47 7.02631)" fill="black"/>
<ellipse cx="3.30729" cy="3.31793" rx="3.30729" ry="3.31793" transform="matrix(1 8.77039e-08 8.71425e-08 -1 71 7.02631)" fill="black"/>
<ellipse cx="3.30729" cy="3.31793" rx="3.30729" ry="3.31793" transform="matrix(1 8.77039e-08 8.71425e-08 -1 96 7.02631)" fill="black"/>
<ellipse cx="3.30729" cy="3.31793" rx="3.30729" ry="3.31793" transform="matrix(1 8.77039e-08 8.71425e-08 -1 71 53.1741)" fill="black"/>
<ellipse cx="3.30729" cy="3.31793" rx="3.30729" ry="3.31793" transform="matrix(1 8.77039e-08 8.71425e-08 -1 96 53.1741)" fill="black"/>
<ellipse cx="3.30729" cy="3.31793" rx="3.30729" ry="3.31793" transform="matrix(1 8.77039e-08 8.71425e-08 -1 24 30.1)" fill="black"/>
<ellipse cx="3.30729" cy="3.31793" rx="3.30729" ry="3.31793" transform="matrix(1 8.77039e-08 8.71425e-08 -1 47 30.1)" fill="black"/>
<ellipse cx="3.30729" cy="3.31793" rx="3.30729" ry="3.31793" transform="matrix(1 8.77039e-08 8.71425e-08 -1 71 30.1)" fill="black"/>
<ellipse cx="3.30729" cy="3.31793" rx="3.30729" ry="3.31793" transform="matrix(1 8.77039e-08 8.71425e-08 -1 96 30.1)" fill="black"/>
</g>
</svg>
