<svg width="244" height="254" viewBox="0 0 244 254" fill="none" xmlns="http://www.w3.org/2000/svg">
<path d="M131.414 172.018C131.436 172.064 131.451 172.114 131.46 172.164L131.492 172.358L131.554 172.744L131.669 173.519L131.876 175.07C132.002 176.106 132.113 177.144 132.217 178.182C132.42 180.258 132.603 182.338 132.728 184.42C132.99 188.584 133.162 192.752 133.246 196.925C133.327 201.096 133.312 205.267 133.28 209.438C133.251 211.524 133.219 213.609 133.155 215.693L132.921 221.945L132.503 221.427L159.893 226.812L173.601 229.44L180.462 230.705L183.897 231.303L185.615 231.577L186.472 231.696L186.895 231.743L187.098 231.758L187.187 231.76C187.21 231.763 187.243 231.75 187.188 231.769L187.126 231.802C188.835 230.708 190.573 229.686 192.331 228.686C194.093 227.697 195.888 226.762 197.727 225.912C199.552 225.026 201.44 224.267 203.376 223.643C204.351 223.336 205.346 223.091 206.354 222.908C207.375 222.712 208.419 222.655 209.456 222.74L209.14 223.03C208.824 218.376 208.48 213.723 208.108 209.072L206.985 195.123C206.59 190.476 206.19 185.829 205.708 181.194C205.466 178.877 205.208 176.562 204.901 174.259C204.747 173.107 204.58 171.958 204.38 170.823C204.28 170.256 204.17 169.692 204.041 169.143C203.976 168.871 203.907 168.599 203.826 168.35C203.789 168.235 203.746 168.121 203.698 168.01C203.675 167.964 203.655 167.927 203.641 167.904C203.645 167.896 203.605 167.902 203.776 167.99L204.013 168.04C197.51 167.887 190.989 167.857 184.485 168.009C181.234 168.099 177.982 168.202 174.748 168.441C173.132 168.562 171.519 168.715 169.928 168.951C169.135 169.071 168.345 169.21 167.581 169.4C166.86 169.54 166.174 169.818 165.562 170.217L165.542 170.233C165.461 170.299 165.36 170.338 165.255 170.344C159.674 170.667 154.077 170.923 148.446 171.202L131.414 172.018ZM131.317 171.942L148.142 170.632C153.797 170.201 159.485 169.749 165.19 169.363L164.883 169.49C165.606 168.967 166.435 168.601 167.314 168.416C168.127 168.202 168.942 168.047 169.757 167.912C171.387 167.647 173.019 167.469 174.652 167.324C177.918 167.038 181.185 166.874 184.452 166.789C190.987 166.617 197.513 166.628 204.049 166.762L204.08 166.762C204.152 166.764 204.222 166.781 204.287 166.812C204.473 166.896 204.629 167.031 204.737 167.201C204.795 167.291 204.847 167.384 204.892 167.48C204.962 167.637 205.024 167.797 205.077 167.959C205.178 168.266 205.253 168.561 205.323 168.856C205.46 169.445 205.566 170.029 205.665 170.612C205.86 171.777 206.019 172.94 206.165 174.102C206.455 176.428 206.695 178.753 206.918 181.08C207.357 185.732 207.741 190.386 208.068 195.043C208.392 199.7 208.708 204.357 208.966 209.017L209.706 222.999C209.71 223.072 209.685 223.143 209.635 223.198C209.586 223.253 209.516 223.286 209.441 223.29C209.424 223.291 209.407 223.291 209.39 223.289C207.396 223.144 205.393 223.403 203.506 224.05C201.583 224.649 199.706 225.381 197.889 226.24C196.071 227.105 194.301 228.064 192.561 229.071C190.821 230.075 189.117 231.152 187.479 232.294L187.468 232.302C187.452 232.313 187.435 232.321 187.417 232.327C187.347 232.35 187.275 232.362 187.201 232.361L187.073 232.36L186.84 232.345L186.395 232.3L185.522 232.186L183.791 231.925L180.343 231.355L173.464 230.148L159.73 227.632C150.58 225.925 141.431 224.213 132.298 222.425C132.177 222.401 132.069 222.337 131.992 222.243C131.916 222.149 131.876 222.032 131.879 221.912L131.879 221.907L132.06 215.664L132.208 209.422C132.283 205.26 132.342 201.097 132.305 196.935C132.293 192.773 132.254 188.61 132.091 184.451C132.006 182.371 131.931 180.291 131.807 178.213C131.745 177.174 131.676 176.135 131.592 175.098L131.317 171.942Z" fill="#272727"/>
<path d="M132.154 171.947C131.003 170.462 129.907 168.94 128.786 167.435C128.752 167.39 128.734 167.335 128.736 167.279C128.738 167.223 128.758 167.169 128.794 167.125L128.806 167.111C130.137 165.542 131.613 164.095 133.215 162.79C134.812 161.467 136.528 160.288 138.342 159.268C140.174 158.245 142.124 157.438 144.151 156.864C146.197 156.291 148.324 156.045 150.45 156.136L150.465 156.137C150.56 156.142 150.652 156.171 150.732 156.221C150.812 156.27 150.877 156.34 150.922 156.422C152.119 158.632 153.291 160.856 154.44 163.093C155.019 164.209 155.584 165.332 156.137 166.461C156.695 167.588 157.257 168.713 157.789 169.854C157.093 168.8 156.429 167.73 155.76 166.662C155.087 165.596 154.425 164.524 153.777 163.446C152.473 161.292 151.192 159.126 149.935 156.947L150.407 157.232C148.404 157.207 146.409 157.472 144.486 158.018C142.55 158.569 140.683 159.327 138.918 160.28C137.134 161.229 135.429 162.313 133.819 163.523C132.195 164.729 130.661 166.045 129.227 167.462L129.248 167.138C130.218 168.741 131.214 170.326 132.154 171.947Z" fill="#272727"/>
<path d="M158.904 169.854C159.288 168.39 159.833 166.971 160.529 165.621C161.213 164.251 162.045 162.957 163.011 161.761L163.758 160.874C164.021 160.59 164.305 160.323 164.578 160.047C165.137 159.503 165.727 158.99 166.347 158.513C166.656 158.272 166.998 158.074 167.324 157.855C167.646 157.629 167.984 157.424 168.335 157.243C169.028 156.862 169.749 156.533 170.494 156.26L171.617 155.86C171.995 155.741 172.391 155.681 172.777 155.59L173.957 155.34C174.489 155.271 175.029 155.394 175.474 155.687C175.697 155.833 175.89 156.019 176.042 156.236C176.17 156.428 176.267 156.581 176.372 156.761C176.577 157.113 176.754 157.48 176.902 157.858C177.218 158.636 177.362 159.47 177.324 160.306C177.262 161.16 176.979 161.985 176.502 162.703C176.264 163.049 175.988 163.367 175.679 163.653C175.524 163.791 175.378 163.942 175.217 164.068L174.715 164.42C173.371 165.27 171.895 165.903 170.345 166.294L170.479 166.234C169.575 166.798 168.68 167.425 167.825 168.079C166.958 168.73 166.129 169.426 165.339 170.165C164.884 170.531 164.351 170.794 163.778 170.933C163.205 171.073 162.608 171.085 162.029 170.97C160.923 170.8 159.861 170.421 158.904 169.854ZM158.904 169.854C159.407 170.069 159.928 170.243 160.462 170.375C160.984 170.518 161.521 170.606 162.063 170.636C162.576 170.697 163.097 170.647 163.587 170.488C164.078 170.33 164.526 170.067 164.9 169.719C165.653 168.919 166.45 168.158 167.287 167.441C168.136 166.728 169.004 166.058 169.929 165.419C169.958 165.399 169.989 165.384 170.022 165.372L170.063 165.359C171.478 164.941 172.82 164.318 174.045 163.512L174.472 163.197C174.607 163.085 174.72 162.956 174.846 162.838C175.091 162.604 175.31 162.346 175.501 162.068C175.857 161.519 176.066 160.891 176.11 160.243C176.131 159.573 176.007 158.907 175.746 158.288C175.619 157.966 175.469 157.652 175.299 157.349C175.216 157.202 175.111 157.036 175.032 156.912C174.967 156.817 174.884 156.736 174.788 156.671C174.59 156.539 174.349 156.482 174.111 156.511L173.036 156.732C172.675 156.814 172.305 156.864 171.952 156.973L170.9 157.321C170.198 157.556 169.515 157.844 168.859 158.183C168.525 158.343 168.204 158.526 167.896 158.731C167.585 158.929 167.257 159.105 166.954 159.317C165.735 160.174 164.617 161.161 163.623 162.26C161.605 164.501 160.007 167.071 158.904 169.854Z" fill="#272727"/>
<path d="M123.287 241.629C127.594 241.629 131.086 238.22 131.086 234.016C131.086 229.812 127.594 226.404 123.287 226.404C118.979 226.404 115.487 229.812 115.487 234.016C115.487 238.22 118.979 241.629 123.287 241.629Z" fill="#272727"/>
<path d="M76.0013 222.626C76.1385 223.699 76.276 224.779 76.3766 225.862C76.4495 226.946 76.5037 228.034 76.4911 229.121C76.4804 231.294 76.3435 233.475 76.201 235.617C76.08 237.733 76.0026 239.949 77.1631 241.586C77.7352 242.409 78.5047 243.084 79.4047 243.552C80.3261 244.001 81.3335 244.259 82.3624 244.307C82.8837 244.334 83.4064 244.315 83.9239 244.248C84.4245 244.18 85.0028 244.052 85.5571 243.98C86.6724 243.819 87.7983 243.739 88.9258 243.74C91.1725 243.743 93.4072 244.059 95.5626 244.678C96.6336 244.994 97.6788 245.389 98.6891 245.858C99.206 246.069 99.6807 246.363 100.179 246.612C100.651 246.876 101.141 247.111 101.644 247.315C103.684 248.088 105.863 248.454 108.051 248.392C110.215 248.387 112.359 247.986 114.371 247.209C114.846 247.016 115.296 246.768 115.711 246.47C116.087 246.222 116.382 245.872 116.559 245.464C116.595 245.378 116.617 245.286 116.624 245.193C116.635 245.158 116.636 245.12 116.628 245.084C116.63 245.053 116.625 245.021 116.611 244.992C116.551 244.815 116.45 244.653 116.316 244.519C115.97 244.156 115.582 243.833 115.161 243.556C114.286 242.955 113.339 242.403 112.392 241.855C111.436 241.307 110.496 240.77 109.523 240.277C107.59 239.273 105.597 238.399 103.557 237.552C101.442 236.746 99.4452 235.671 97.6169 234.357C95.8377 232.952 94.3336 231.245 93.1771 229.318C91.0161 225.513 88.9101 221.727 86.8567 217.883C86.8493 217.869 86.8477 217.853 86.8521 217.838C86.8565 217.823 86.8667 217.81 86.8805 217.802C86.8943 217.795 86.9107 217.792 86.9262 217.796C86.9418 217.8 86.9552 217.809 86.9639 217.822C89.3649 221.457 91.6977 225.158 94.0038 228.825C95.1547 230.603 96.6254 232.165 98.3448 233.433C100.126 234.636 102.052 235.621 104.079 236.367C106.148 237.194 108.17 238.129 110.136 239.168C111.121 239.69 112.083 240.264 113.027 240.829C113.973 241.401 114.921 241.975 115.847 242.636C116.338 242.974 116.787 243.367 117.185 243.807C117.427 244.072 117.603 244.389 117.697 244.732C117.751 244.928 117.759 245.133 117.721 245.333C117.699 245.509 117.652 245.681 117.58 245.844C117.314 246.435 116.878 246.937 116.324 247.288C115.834 247.618 115.306 247.888 114.75 248.095C112.602 248.846 110.322 249.172 108.044 249.054C105.788 249.002 103.561 248.545 101.474 247.707C100.957 247.488 100.455 247.237 99.9715 246.956C99.4877 246.705 99.0269 246.409 98.5235 246.195C97.5357 245.727 96.5077 245.346 95.4513 245.054C94.3922 244.777 93.3122 244.582 92.2216 244.471C91.1322 244.377 90.0372 244.357 88.945 244.413C87.8563 244.47 86.7733 244.604 85.7045 244.813C85.1645 244.912 84.6679 245.054 84.0761 245.167C83.4997 245.276 82.9131 245.325 82.3261 245.313C81.132 245.299 79.9565 245.022 78.8871 244.503C77.8132 243.964 76.9042 243.158 76.252 242.166C75.6204 241.171 75.2537 240.039 75.1853 238.871C75.1194 237.765 75.1419 236.655 75.2526 235.553C75.4391 233.382 75.7349 231.255 75.8415 229.103C75.8963 228.028 75.942 226.953 75.9557 225.875L75.8781 222.639L75.878 222.635C75.8777 222.619 75.8834 222.604 75.8941 222.593C75.9047 222.581 75.9195 222.574 75.9353 222.573C75.9512 222.572 75.9668 222.577 75.9791 222.587C75.9914 222.596 75.9993 222.61 76.0013 222.626V222.626Z" fill="#272727"/>
<path d="M117.193 245.503C117.193 245.503 115.65 249.512 104.511 248.381C104.052 244.329 109.851 239.165 109.851 239.165C109.355 238.137 107.342 237.273 105.421 236.662C105.578 236.776 105.694 236.935 105.755 237.116C105.815 237.297 105.817 237.493 105.759 237.675C105.701 237.857 105.587 238.017 105.432 238.134C105.278 238.25 105.09 238.317 104.895 238.325C104.654 238.317 104.425 238.218 104.257 238.049C104.089 237.88 103.996 237.653 103.996 237.418C103.996 237.182 104.089 236.956 104.257 236.787C104.425 236.618 104.654 236.519 104.895 236.511H104.913C103.135 235.979 101.568 235.676 101.568 235.676C97.1442 235.398 93.8297 244.468 93.8297 244.468C93.8297 244.468 93.6872 244.535 92.9375 244.317C87.721 242.787 79.704 247.044 76.9347 242.201C76.9347 242.201 75.5159 244.112 78.4463 246.41L76.9037 249.681H87.0085L90.5399 248.218V245.503C90.5399 245.503 100.087 248.756 104.994 250.207C110.83 251.93 119.392 249.681 117.193 245.503ZM99.3188 246.379C99.0777 246.372 98.8491 246.273 98.6813 246.103C98.5135 245.934 98.4198 245.708 98.4198 245.472C98.4198 245.237 98.5135 245.011 98.6813 244.841C98.8491 244.672 99.0777 244.573 99.3188 244.565C99.56 244.573 99.7886 244.672 99.9563 244.841C100.124 245.011 100.218 245.237 100.218 245.472C100.218 245.708 100.124 245.934 99.9564 246.103C99.7886 246.273 99.56 246.372 99.3188 246.379ZM101.772 242.026C101.531 242.018 101.302 241.919 101.135 241.75C100.967 241.58 100.873 241.354 100.873 241.119C100.873 240.883 100.967 240.657 101.135 240.488C101.302 240.318 101.531 240.219 101.772 240.212C102.013 240.219 102.242 240.318 102.41 240.488C102.577 240.657 102.671 240.883 102.671 241.119C102.671 241.354 102.577 241.58 102.41 241.75C102.242 241.919 102.013 242.018 101.772 242.026V242.026Z" fill="#272727"/>
<path d="M32.7611 233.15C31.9109 231.431 31.4322 229.56 31.3547 227.653V227.617C31.3733 227.188 31.4229 226.758 31.4601 226.329C31.4973 225.893 31.5406 225.464 31.5902 225.035C31.5927 225.019 31.6011 225.005 31.6137 224.995C31.6262 224.985 31.6421 224.98 31.6583 224.98C31.6893 224.986 31.7141 225.005 31.7141 225.035C31.7699 225.464 31.8132 225.893 31.8566 226.323C31.8999 226.746 31.9495 227.163 31.9743 227.581C32.1556 229.371 32.7011 231.108 33.5789 232.69C34.4336 233.953 35.4971 235.069 36.7262 235.992C36.943 236.167 37.1661 236.342 37.3891 236.518C38.2503 237.177 39.1239 237.836 39.9974 238.489C39.7688 238.547 39.5718 238.689 39.4473 238.884C39.3227 239.08 39.2801 239.315 39.3283 239.541C38.4237 238.84 37.5316 238.126 36.6519 237.382C36.2182 237.02 35.7845 236.645 35.3632 236.252C34.3358 235.356 33.4579 234.309 32.7611 233.15Z" fill="#272727"/>
<path d="M50.4181 249.38C50.3472 249.705 50.2033 250.01 49.9968 250.275C49.8406 250.486 49.655 250.675 49.4454 250.837C48.5852 251.426 47.5849 251.79 46.5397 251.895C44.6015 252.124 42.6379 252.038 40.7284 251.641C38.8396 251.274 37.0044 250.681 35.264 249.876C34.9109 249.706 34.5577 249.525 34.217 249.331C33.6553 249.028 33.1151 248.689 32.6 248.316C31.879 247.808 31.2182 247.224 30.6298 246.574C29.3858 245.201 27.9462 244.01 26.355 243.037C25.5548 242.569 24.7154 242.169 23.8458 241.839C22.9743 241.525 22.0768 241.284 21.1632 241.12C20.248 240.96 19.3227 240.861 18.3938 240.824C17.3936 240.772 16.4093 240.558 15.4819 240.189C14.5421 239.81 13.6875 239.256 12.9666 238.556C12.3138 237.943 11.8063 237.198 11.4797 236.373C11.4339 236.25 11.3946 236.125 11.362 235.998C11.0828 235.02 11.0594 233.989 11.2938 232.999C11.5145 232.048 11.88 231.135 12.378 230.29C13.3481 228.654 14.5848 227.184 16.0395 225.936C17.4006 224.705 18.2106 223 18.2947 221.19C18.2942 221.182 18.2954 221.174 18.2984 221.166C18.3013 221.158 18.3059 221.152 18.3117 221.146C18.3176 221.14 18.3246 221.136 18.3323 221.133C18.3401 221.13 18.3483 221.129 18.3566 221.129C18.3639 221.128 18.3714 221.129 18.3785 221.131C18.3856 221.133 18.3923 221.136 18.398 221.141C18.4038 221.145 18.4086 221.151 18.4121 221.157C18.4157 221.164 18.4179 221.17 18.4186 221.178C18.5639 222.123 18.4506 223.089 18.0902 223.977C17.7424 224.876 17.2302 225.706 16.5785 226.426C15.2626 227.705 14.144 229.163 13.2577 230.756C12.4399 232.316 11.9009 234.1 12.4213 235.69C12.6738 236.491 13.1299 237.217 13.7471 237.8C14.3654 238.414 15.0941 238.913 15.897 239.27C16.7075 239.637 17.5737 239.874 18.4619 239.971C19.4216 240.063 20.3737 240.218 21.3118 240.437C22.2488 240.664 23.1648 240.968 24.0502 241.344C24.2608 241.434 24.4652 241.531 24.6697 241.634C24.6806 241.636 24.6911 241.64 24.7007 241.646C25.3512 241.966 25.9769 242.311 26.5841 242.686C28.1727 243.722 29.6323 244.936 30.9333 246.302C32.208 247.635 33.7695 248.676 35.5055 249.349C37.2249 250.055 39.0303 250.54 40.877 250.795C41.4408 250.873 42.0046 250.94 42.5684 250.976C43.8353 251.085 45.1112 251.038 46.3662 250.837C47.2103 250.731 48.0158 250.429 48.7143 249.954C48.993 249.743 49.1854 249.442 49.257 249.105C49.3286 248.768 49.2745 248.417 49.1046 248.116C48.7365 247.353 48.226 246.664 47.5991 246.084C46.9409 245.457 46.2458 244.867 45.5174 244.319L43.4048 242.686L41.0753 240.89C40.8089 240.684 40.5487 240.485 40.2823 240.279C40.402 240.273 40.5192 240.243 40.6266 240.191C40.734 240.139 40.8292 240.066 40.9065 239.976C40.9837 239.886 41.0413 239.782 41.0757 239.67C41.11 239.558 41.1204 239.44 41.1063 239.324C42.302 240.213 43.4977 241.108 44.681 242.015C45.2386 242.45 45.79 242.879 46.3414 243.315C47.1126 243.895 47.8394 244.53 48.516 245.214C49.2491 245.924 49.8377 246.763 50.2507 247.687C50.4762 248.223 50.5345 248.812 50.4181 249.38Z" fill="#272727"/>
<path d="M49.9969 250.274C49.9907 250.213 49.9845 250.153 49.9721 250.092C49.9721 250.092 48.2993 252.184 42.5686 250.975C40.6528 250.551 38.7834 249.947 36.9864 249.173C37.5502 246.337 41.2799 243.876 43.4049 242.685C43.9811 242.365 44.4334 242.135 44.6812 242.014C44.8113 241.947 44.8856 241.917 44.8856 241.917C44.5635 239.631 38.0335 236.191 38.0335 236.191C37.6163 236.038 37.1714 235.97 36.7262 235.991C36.2609 236.009 35.8011 236.096 35.3632 236.251C31.7389 237.449 27.9721 242.346 27.9721 242.346C27.9721 242.346 27.1976 242.975 26.5471 242.546C25.9697 242.177 25.3501 241.874 24.7009 241.645C24.6913 241.639 24.6808 241.635 24.6699 241.633C19.9118 239.904 12.9295 240.647 11.9073 235.895C11.7407 236.032 11.5966 236.193 11.4798 236.372C11.0647 237.013 10.6682 238.325 12.0684 240.357L9.60254 243.036L19.2551 245.956L23.0714 245.581L23.9017 242.987C23.9017 242.987 28.4677 245.739 32.6001 248.314C33.1515 248.659 33.6905 248.998 34.2171 249.33C35.2022 249.953 36.1253 250.546 36.8935 251.054C41.8747 254.349 50.5731 254.712 49.9969 250.274ZM36.6457 243.114C36.4046 243.107 36.1759 243.008 36.0082 242.838C35.8404 242.669 35.7466 242.443 35.7466 242.207C35.7466 241.972 35.8404 241.746 36.0082 241.576C36.1759 241.407 36.4046 241.308 36.6457 241.3C36.8868 241.308 37.1154 241.407 37.2832 241.576C37.451 241.746 37.5448 241.972 37.5448 242.207C37.5448 242.443 37.451 242.669 37.2832 242.838C37.1154 243.008 36.8868 243.107 36.6457 243.114ZM40.0036 238.489C40.0731 238.476 40.1436 238.47 40.2143 238.471C40.3309 238.467 40.447 238.486 40.5557 238.528C40.6644 238.569 40.7634 238.631 40.8467 238.711C40.9301 238.791 40.9961 238.886 41.0407 238.991C41.0853 239.096 41.1077 239.209 41.1064 239.323C41.1206 239.439 41.1102 239.557 41.0758 239.669C41.0415 239.781 40.9839 239.886 40.9066 239.975C40.8294 240.065 40.7341 240.138 40.6268 240.19C40.5194 240.242 40.4022 240.272 40.2824 240.278C40.2601 240.283 40.2372 240.286 40.2143 240.285C39.9978 240.292 39.7864 240.22 39.6221 240.082C39.4579 239.944 39.353 239.751 39.3283 239.541C39.2801 239.315 39.3227 239.08 39.4473 238.884C39.5718 238.688 39.7688 238.547 39.9974 238.489H40.0036ZM33.3001 244.348C33.5409 244.356 33.7689 244.455 33.9361 244.625C34.1034 244.794 34.1969 245.02 34.1969 245.255C34.1969 245.49 34.1034 245.716 33.9361 245.885C33.7689 246.054 33.5409 246.153 33.3001 246.162C33.0594 246.153 32.8314 246.054 32.6641 245.885C32.4969 245.716 32.4034 245.49 32.4034 245.255C32.4034 245.02 32.4969 244.794 32.6641 244.625C32.8314 244.455 33.0594 244.356 33.3001 244.348H33.3001Z" fill="#272727"/>
<path d="M45.5313 24.7269L45.1666 24.934C45.0345 24.982 44.8941 25.0165 44.7553 25.0563C44.6101 25.0663 44.4645 25.0675 44.3192 25.0599C44.1747 25.0384 44.0329 25.0017 43.8965 24.9504C43.3694 24.7145 42.9274 24.3289 42.6282 23.844C42.0225 22.8853 41.7776 21.7508 41.9354 20.6352L42.0068 20.2177L42.1272 19.8095C42.2083 19.5179 42.3437 19.2433 42.5265 18.9995C42.7372 18.7073 43.0569 18.5074 43.4169 18.4427C43.7595 18.3989 44.1078 18.4504 44.4217 18.5913C44.9557 18.8395 45.442 19.1753 45.8596 19.5841C46.2715 19.9651 46.6502 20.379 46.9919 20.8213L46.7308 20.6449C47.3218 20.7409 47.9287 20.6646 48.4755 20.4256C49.0812 20.1809 49.6571 19.8712 50.1928 19.5024C51.2966 18.7345 52.3286 17.8728 53.2768 16.9274C55.2059 15.0223 57.0224 13.0116 58.7175 10.9052L58.7395 10.8783C58.7776 10.8315 58.8248 10.7925 58.8784 10.7635C58.932 10.7345 58.9909 10.7161 59.0517 10.7093C59.1126 10.7026 59.1742 10.7076 59.2331 10.7241C59.292 10.7406 59.347 10.7682 59.3949 10.8054C59.4521 10.8501 59.4979 10.9072 59.5286 10.9722C59.8226 11.5987 60.0718 12.2167 60.3079 12.8519C60.5421 13.4848 60.7529 14.1266 60.9251 14.7812C61.107 15.4367 61.2378 16.1047 61.3163 16.7795C61.4065 17.4679 61.3884 18.1656 61.2626 18.8487L61.2418 18.6872C61.5124 19.2441 61.8552 19.7647 62.2618 20.2363C62.6605 20.7145 63.1347 21.1276 63.6666 21.4602L63.6766 21.4664C63.6979 21.4794 63.7162 21.4966 63.7304 21.5168C63.7446 21.5371 63.7544 21.5599 63.7592 21.584C63.8125 21.8495 63.8147 22.1225 63.7655 22.3888C63.7177 22.6647 63.5911 22.9218 63.4001 23.1306C63.2053 23.3332 62.9577 23.4804 62.6838 23.5564C62.5532 23.5918 62.4205 23.6195 62.2864 23.6392L61.8902 23.6611L62.076 23.4669C62.1164 24.2777 62.0807 25.0903 61.9695 25.8948C61.8663 26.7025 61.6751 27.4971 61.3992 28.2652C61.1111 29.0408 60.7107 29.7721 60.2102 30.437C59.668 31.0922 58.9952 31.6332 58.2324 32.027C58.2096 32.039 58.1849 32.0469 58.1593 32.0505L58.1225 32.0555C57.3818 32.1227 56.665 32.3458 56.0213 32.7096C55.3776 33.0734 54.8224 33.5691 54.3941 34.1625C54.2142 34.4624 54.0803 34.7863 53.9966 35.124C53.9181 35.4769 53.8739 35.8363 53.8647 36.1973L53.7593 38.5293L53.6534 38.1937C54.8805 39.7083 56.0409 41.2567 57.1377 42.8669C57.6809 43.6757 58.2174 44.4896 58.7032 45.3497C58.9418 45.7842 59.1824 46.2157 59.3846 46.6873C59.6235 47.1868 59.7809 47.7198 59.8511 48.2668C59.8634 48.3681 59.8488 48.4708 59.8087 48.5651C59.7686 48.6593 59.7043 48.7418 59.6221 48.8048C59.5398 48.8678 59.4424 48.9091 59.3391 48.9247C59.2358 48.9402 59.1301 48.9296 59.0322 48.8938L59.0074 48.8845C57.1433 48.1545 55.3209 47.3266 53.5483 46.4045C51.7794 45.5233 50.0521 44.5727 48.3227 43.6292C46.5948 42.6834 44.8975 41.6868 43.198 40.6966C41.5023 39.6997 39.8097 38.6994 38.1319 37.6756L38.1254 37.6716C38.0757 37.6413 38.0325 37.6017 37.9985 37.5551C37.9644 37.5085 37.9401 37.4558 37.927 37.4C37.9138 37.3442 37.912 37.2865 37.9217 37.23C37.9314 37.1736 37.9523 37.1195 37.9834 37.071C38.0109 37.0284 38.0455 36.9907 38.086 36.9595C38.8342 36.3719 39.5055 35.6965 40.0845 34.9487C40.6733 34.1963 41.1555 33.37 41.5182 32.4919C41.895 31.6144 42.1138 30.6799 42.1648 29.7297C42.2141 28.7679 42.1145 27.8044 41.8693 26.8717L41.868 26.8659C41.8647 26.8508 41.8675 26.835 41.8758 26.8218C41.8842 26.8086 41.8974 26.799 41.9127 26.795C41.9281 26.7911 41.9444 26.7931 41.9583 26.8005C41.9722 26.808 41.9827 26.8204 41.9874 26.8352C42.3302 27.767 42.5132 28.7476 42.5292 29.7375C42.5508 30.7394 42.3914 31.7372 42.0581 32.685C41.7241 33.6351 41.2604 34.5369 40.6796 35.366C40.0981 36.2063 39.4108 36.9719 38.6337 37.6448L38.5878 36.9289L43.7474 39.7698L48.9349 42.5524C50.6648 43.476 52.4126 44.3651 54.1555 45.2555C55.0296 45.6949 55.9059 46.1303 56.789 46.5437C57.6633 46.949 58.5753 47.3851 59.4198 47.7058L58.5762 48.3234C58.5177 47.9214 58.4018 47.5293 58.232 47.1585C58.0644 46.7441 57.844 46.3298 57.6277 45.9183C57.1826 45.0947 56.6732 44.2894 56.1571 43.4899C55.1073 41.9 53.9896 40.3328 52.8416 38.8053L52.8292 38.7888C52.76 38.6967 52.7267 38.5834 52.7356 38.4694L52.9174 36.1307C52.9413 35.7125 53.0103 35.2979 53.1231 34.8938C53.2482 34.478 53.4353 34.0825 53.6784 33.72C54.1752 33.0179 54.8544 32.4575 55.6462 32.096C56.4103 31.7422 57.2323 31.5225 58.0744 31.4471L57.9647 31.4755C58.6651 31.1468 59.2908 30.6841 59.8044 30.1148C60.3041 29.5142 60.7008 28.8385 60.979 28.114C61.2559 27.3783 61.4517 26.6159 61.5631 25.8397C61.6828 25.0629 61.73 24.2771 61.7042 23.492C61.7021 23.4424 61.7204 23.3941 61.7548 23.3576C61.7893 23.3212 61.8371 23.2995 61.8879 23.2975L61.8901 23.2975C62.1206 23.2974 62.3499 23.2657 62.5712 23.2032C62.7783 23.1447 62.9652 23.0324 63.112 22.8783C63.2441 22.709 63.3355 22.5129 63.3796 22.3045C63.4237 22.0961 63.4192 21.8807 63.3666 21.6742L63.4591 21.7978C62.8802 21.4549 62.3588 21.0271 61.9132 20.5294C61.4649 20.0349 61.076 19.492 60.7542 18.9112C60.7308 18.8692 60.7222 18.8208 60.7296 18.7736L60.7334 18.7495C60.8125 18.1215 60.7938 17.4854 60.6777 16.8629C60.5689 16.2257 60.4107 15.5974 60.2047 14.9835C60.0067 14.3642 59.7718 13.7537 59.5138 13.1528C59.2566 12.5547 58.9761 11.9523 58.6757 11.3885L59.4867 11.4554C58.6774 12.582 57.8085 13.6418 56.9115 14.6923C56.0071 15.7388 55.0494 16.7402 54.042 17.6928C53.0292 18.6629 51.9302 19.5434 50.7578 20.3239C50.1513 20.7236 49.5008 21.0558 48.8186 21.3143C48.0829 21.6113 47.2726 21.6846 46.4936 21.5248C46.3914 21.5 46.3014 21.4409 46.2394 21.3579L46.2322 21.3483C45.6823 20.5196 44.9549 19.817 44.1003 19.2889C43.676 19.0936 43.347 19.0992 43.0807 19.4252C42.9354 19.6031 42.8253 19.8059 42.7563 20.0232L42.6339 20.3712L42.5544 20.7322C42.3609 21.7214 42.5089 22.7453 42.9752 23.6436C43.2041 24.0886 43.5644 24.4564 44.0096 24.6996C44.2368 24.8138 44.491 24.8672 44.7462 24.8544C45.0014 24.8415 45.2486 24.7628 45.4626 24.6264L45.4673 24.6234C45.4813 24.6151 45.498 24.6124 45.5139 24.6161C45.5298 24.6197 45.5436 24.6294 45.5523 24.6429C45.561 24.6565 45.5638 24.6728 45.5602 24.6884C45.5565 24.7039 45.5467 24.7175 45.5329 24.726L45.5313 24.7269Z" fill="#272727"/>
<path d="M46.2773 26.2004C47.2951 27.2386 48.1609 28.2004 49.143 29.0306C49.6282 29.4459 50.147 29.8224 50.6942 30.1564C51.2842 30.5049 51.8946 30.8193 52.5224 31.098C51.7887 31.2746 51.0194 31.2495 50.2994 31.0257C49.5721 30.8045 48.9011 30.4356 48.3305 29.9431C47.7689 29.4611 47.297 28.8879 46.9356 28.249C46.5678 27.6203 46.3433 26.9215 46.2773 26.2004Z" fill="#272727"/>
<path d="M44.2629 24.9307C43.8228 25.7522 43.1761 26.4511 42.3835 26.962C42.1655 27.0991 41.9202 27.1897 41.6638 27.2276C41.4074 27.2655 41.1456 27.2499 40.8958 27.1819C40.6432 27.0986 40.4091 26.9694 40.2058 26.8011C40.0255 26.6297 39.858 26.4458 39.7046 26.2509C38.5945 24.7416 37.7657 23.0531 37.2563 21.2629C36.7161 19.4471 36.5902 17.5379 36.8875 15.6696C37.2231 13.7822 38.0506 12.0109 39.2904 10.5259C40.5111 9.03858 42.065 7.8443 43.8327 7.03493C45.6162 6.27097 47.5658 5.94982 49.5075 6.10015C51.4118 6.23892 53.2699 6.73984 54.9772 7.57471C55.3995 7.78153 55.8098 8.01081 56.2064 8.26153L56.7976 8.63884L57.3529 9.06702C58.1173 9.60861 58.7208 10.3383 59.1021 11.1817C58.6141 10.4207 57.9474 9.78407 57.1572 9.32443L56.5817 8.96527L55.9739 8.65791C55.5694 8.45501 55.1537 8.274 54.7288 8.11569C53.0529 7.45455 51.2694 7.09124 49.4624 7.04289C47.6891 6.98892 45.9277 7.34298 44.3205 8.07644C42.7381 8.83405 41.3501 9.92862 40.2587 11.2794C39.1319 12.6033 38.3678 14.1846 38.0383 15.8754C37.7255 17.586 37.7771 19.3411 38.1899 21.0314C38.2678 21.4637 38.4243 21.8781 38.5372 22.3041C38.6917 22.717 38.8214 23.1412 38.9996 23.5472C39.3287 24.3713 39.7319 25.1654 40.2044 25.9201C40.3163 26.0954 40.4398 26.2634 40.5741 26.423C40.7119 26.5609 40.8742 26.6733 41.0531 26.7547C41.2441 26.8245 41.4482 26.8539 41.6517 26.8409C41.8553 26.8278 42.0536 26.7726 42.2336 26.6788C43.035 26.251 43.7283 25.6537 44.2629 24.9307Z" fill="#272727"/>
<path d="M38.3493 37.3625C37.4317 37.3451 36.5197 37.5074 35.6674 37.8398C35.2481 38.003 34.8413 38.1954 34.4504 38.4156C34.0729 38.6528 33.7105 38.912 33.3652 39.1919C32.6893 39.7687 32.0936 40.4293 31.5933 41.1569C31.3591 41.5335 31.1095 41.8987 30.883 42.2778L30.3121 43.4813C30.1229 43.8846 29.9615 44.2998 29.829 44.7242C29.6904 45.1479 29.511 45.5566 29.4049 45.9915L29.0848 47.2957C28.9601 47.7268 28.8639 48.1653 28.7968 48.6084C28.6585 49.4968 28.4563 50.3753 28.35 51.2727L28.0354 53.9711L28.0351 53.934C28.0749 55.9792 28.0947 58.024 28.1963 60.0649C28.2857 62.1064 28.4149 64.1459 28.5838 66.1835L29.0712 72.3005C29.2027 74.3433 29.3301 76.3824 29.3619 78.4449L29.3599 78.4941L29.3585 78.5066C29.264 79.4037 29.133 80.2732 28.9665 81.1535C28.8057 82.0463 28.5736 82.9253 28.2724 83.7827L28.254 83.8256L28.2337 83.8664C28.1862 83.9825 28.1592 84.1055 28.1538 84.2304C28.1501 84.3616 28.1748 84.4921 28.2263 84.6133C28.3693 84.896 28.5981 85.1288 28.8814 85.2802C29.6108 85.6682 30.4071 85.9218 31.2305 86.0284C33.0041 86.2709 34.7966 86.3546 36.5858 86.2785C38.3964 86.2136 40.2147 86.0847 42.0332 85.9233C43.8512 85.7542 45.6691 85.5465 47.493 85.3512C47.5094 85.3493 47.5259 85.3538 47.5388 85.3637C47.5518 85.3736 47.5602 85.3881 47.5622 85.404C47.5639 85.4187 47.56 85.4335 47.5514 85.4457C47.5428 85.4579 47.5299 85.4666 47.5152 85.4702C45.7318 85.8918 43.9397 86.2945 42.1258 86.5911C40.3116 86.9174 38.4815 87.1535 36.6427 87.2988C34.7768 87.4812 32.8962 87.4665 31.0336 87.255C30.034 87.1464 29.0656 86.8496 28.1819 86.3809C27.6633 86.0871 27.2518 85.6423 27.005 85.1089C26.8807 84.8128 26.8226 84.4942 26.8345 84.1745C26.8464 83.8547 26.9281 83.5411 27.0741 83.2546L27.0355 83.338C27.3237 82.5453 27.5569 81.7345 27.7334 80.9111C27.9152 80.0781 28.0679 79.2215 28.1796 78.3833L28.1763 78.4449C28.1845 76.4214 28.157 74.3766 28.1288 72.3367L28.0577 66.2084C28.021 64.1653 27.9368 62.1242 27.8054 60.0853C27.684 58.0461 27.4734 56.0113 27.2728 53.9774L27.2719 53.9524L27.2725 53.9401L27.3827 51.1755C27.3987 50.7128 27.4453 50.2516 27.5223 49.7948L27.7149 48.4163C27.7813 47.9556 27.8773 47.4993 28.0022 47.0504L28.3511 45.6941C28.4711 45.2432 28.6679 44.8098 28.8231 44.3675C28.9703 43.9204 29.1523 43.485 29.3674 43.0651C30.145 41.3167 31.3641 39.7893 32.9107 38.6256C33.3095 38.3532 33.7252 38.1052 34.1556 37.8831C34.5952 37.6824 35.0526 37.5207 35.522 37.4002C36.4472 37.1398 37.4206 37.0862 38.37 37.2434C38.3852 37.2462 38.3988 37.2545 38.408 37.2666C38.4173 37.2788 38.4215 37.2939 38.4199 37.3089C38.4182 37.324 38.4108 37.3379 38.3992 37.3478C38.3876 37.3578 38.3725 37.3632 38.357 37.3628L38.3493 37.3625Z" fill="#272727"/>
<path d="M32.9967 57.6027C33.0026 59.0732 33.2063 60.5365 33.6027 61.9551C33.9672 63.3819 34.3786 64.7984 34.8803 66.1834C35.359 67.5594 35.9458 68.8974 36.6353 70.1854C36.7812 70.4618 36.9687 70.7155 37.1914 70.9379C37.2157 70.964 37.2211 70.9584 37.2211 70.9584C37.2267 70.961 37.2112 70.9588 37.233 70.9694L37.3208 71.0079C37.4395 71.0547 37.5519 71.1154 37.6556 71.1885C37.8586 71.3239 38.0354 71.4934 38.1775 71.6892C38.4334 72.043 38.6187 72.4406 38.7238 72.8613C38.8322 73.2591 38.8956 73.6673 38.9129 74.0786L38.9119 74.1158L38.908 74.1541C38.7994 75.2351 38.8359 76.3254 39.0166 77.3973C39.1557 78.4323 39.5762 79.412 40.2345 80.2347C40.3984 80.4227 40.5855 80.5902 40.7917 80.7333L41.0991 80.9488L41.4461 81.1028C41.9463 81.3193 42.4686 81.4835 43.0043 81.5928C43.5168 81.7095 44.047 81.7328 44.5682 81.6616C44.7976 81.6208 45.0164 81.5357 45.2115 81.4111C45.3743 81.2978 45.5006 81.1418 45.5759 80.961L46.0329 81.3828C45.6991 81.4522 45.3596 81.4913 45.0185 81.4998C44.6757 81.5084 44.3331 81.479 43.9972 81.4119C43.6613 81.3441 43.3351 81.2366 43.0259 81.0918C42.7082 80.9476 42.4149 80.7567 42.1563 80.5259L42.149 80.5193C42.1338 80.5055 42.1212 80.4891 42.1118 80.471C41.7584 79.8042 41.5937 79.0574 41.635 78.3078C41.7086 77.5838 41.9137 76.8784 42.2408 76.2246C42.3986 75.9013 42.5748 75.5868 42.7686 75.2826C42.9855 74.9958 43.172 74.6858 43.4145 74.4192C43.8659 73.859 44.3706 73.3417 44.9217 72.8741C45.4758 72.4012 46.0886 71.998 46.7456 71.674C46.9123 71.591 47.0849 71.5199 47.2621 71.4614C47.4378 71.3893 47.6216 71.3378 47.8096 71.3081C48.1545 71.2548 48.4951 71.1784 48.8292 71.0794C49.4568 70.8405 50.0218 70.4676 50.4828 69.9882C50.9439 69.5087 51.2893 68.9348 51.4938 68.3083C51.5069 68.273 51.525 68.2397 51.5476 68.2093C51.9642 67.6645 52.3927 67.1257 52.8644 66.6118C53.3404 66.0713 53.892 65.599 54.5029 65.2087C54.8583 64.9792 55.2701 64.8465 55.6957 64.8244C55.9416 64.8236 56.1842 64.8801 56.4031 64.9894C56.622 65.0987 56.8109 65.2576 56.9541 65.4527C57.1934 65.7784 57.3648 66.1469 57.4586 66.5371C57.5537 66.8987 57.6107 67.2688 57.6287 67.6417L56.8344 67.2226C57.1193 67.0475 57.3654 66.8187 57.5584 66.5494C57.7514 66.2802 57.8873 65.9761 57.9582 65.6549C58.0915 64.994 57.9971 64.3087 57.6897 63.7057C57.5686 63.4346 57.3819 63.1964 57.1455 63.0115C57.0969 62.9682 57.0809 62.9927 57.0547 62.9615C57.0569 62.9718 57.0655 62.9764 57.0723 62.9717C57.0641 62.9715 57.1049 62.9606 57.0544 62.9638L56.9076 62.9687C56.7126 62.9717 56.5195 62.9315 56.3428 62.851C56.1959 62.7756 56.0614 62.6792 55.9436 62.565C55.6047 62.2046 55.3532 61.7743 55.2077 61.3062C55.0624 60.8969 54.9524 60.4765 54.8788 60.0494L54.8884 60.0986C54.7154 59.5017 54.5648 58.8984 54.375 58.3075C54.165 57.7232 53.9918 57.126 53.7486 56.5545C53.3036 55.3972 52.7749 54.2722 52.1667 53.188C51.5593 52.1067 50.8702 51.0712 50.105 50.09C49.3545 49.121 48.5035 48.2303 47.5656 47.4319L47.6941 47.5031L44.6937 46.2378L44.8122 46.2705L43.8316 46.1613C43.507 46.1093 43.1784 46.0845 42.8494 46.0874C42.1948 46.0708 41.5401 46.1183 40.8952 46.2291C40.2478 46.3258 39.6115 46.4834 38.9952 46.6994C38.3854 46.9415 37.8005 47.2394 37.2483 47.5891C36.1347 48.3127 35.1577 49.2187 34.3604 50.2671C33.5464 51.3281 32.8895 52.4958 32.4092 53.7357L32.4077 53.7398C32.4021 53.7543 32.3911 53.7662 32.3768 53.7729C32.3625 53.7797 32.3461 53.7809 32.3309 53.7762C32.3158 53.7715 32.3031 53.7613 32.2955 53.7477C32.2878 53.7341 32.2858 53.7181 32.2899 53.7032C32.658 52.3954 33.2292 51.1504 33.9835 50.0115C34.7375 48.8486 35.7069 47.8331 36.8422 47.0169C37.4177 46.6065 38.0322 46.2508 38.6771 45.9547C39.3356 45.6797 40.021 45.4708 40.7228 45.3314C41.4234 45.1874 42.137 45.1119 42.853 45.1062C43.209 45.092 43.5656 45.1066 43.9191 45.1497L44.9846 45.235C45.0119 45.2372 45.0387 45.2432 45.0642 45.2528L45.1033 45.2679L48.1457 46.4334C48.1918 46.4513 48.2351 46.4753 48.2744 46.5047C49.3313 47.3301 50.2828 48.2763 51.1087 49.323C51.9357 50.3435 52.678 51.4269 53.3284 52.5627C53.9647 53.7025 54.5172 54.8849 54.9817 56.1011C55.2393 56.6996 55.4013 57.3299 55.6103 57.9439C55.7966 58.5647 55.9421 59.1962 56.1092 59.8213L56.1164 59.855L56.1188 59.8708C56.1741 60.2261 56.2589 60.5764 56.3722 60.9183C56.4544 61.2128 56.5974 61.4879 56.7923 61.7267C56.8732 61.8089 56.8906 61.8068 56.8988 61.8014L56.9041 61.8071C56.9044 61.8106 56.9957 61.8052 57.0381 61.8077C57.1458 61.8098 57.2532 61.8201 57.3592 61.8384C57.5187 61.8899 57.6702 61.9625 57.8094 62.0541C58.2172 62.3569 58.5373 62.758 58.7382 63.2181C59.1434 64.053 59.2515 64.996 59.0455 65.8976C58.9302 66.3495 58.7243 66.7746 58.4399 67.1485C58.1555 67.5224 57.798 67.8376 57.3882 68.076L57.377 68.0824C57.3181 68.1162 57.253 68.1383 57.1854 68.1476C57.1178 68.1568 57.049 68.153 56.983 68.1363C56.9169 68.1196 56.8548 68.0903 56.8003 68.0502C56.7458 68.0101 56.7 67.9599 56.6654 67.9025C56.6206 67.8278 56.596 67.7433 56.5937 67.6569C56.6058 67.0839 56.4627 66.518 56.1788 66.0164C56.1291 65.9324 56.0581 65.8623 55.9725 65.8129C55.887 65.7635 55.7898 65.7366 55.6904 65.7346C55.426 65.7469 55.1689 65.8235 54.9427 65.9576C54.3853 66.2803 53.8766 66.6769 53.4309 67.136C52.9595 67.6005 52.5166 68.1022 52.0836 68.6133L52.1372 68.5145C51.8574 69.2101 51.4384 69.8444 50.9047 70.3802C50.3771 70.9235 49.7124 71.3217 48.9772 71.5348C48.6295 71.655 48.1971 71.6668 47.8959 71.7449C47.7292 71.7677 47.5661 71.8108 47.4104 71.8731C47.2471 71.9239 47.0878 71.9865 46.934 72.0604C46.305 72.3592 45.7167 72.7336 45.1829 73.1749C44.0895 74.0463 43.2078 75.1436 42.6014 76.3877C42.3039 76.9974 42.1292 77.6571 42.0868 78.331C42.0684 78.9867 42.2382 79.6342 42.5771 80.2006L42.5327 80.1459C42.7564 80.3192 43.0046 80.46 43.2696 80.5639C43.5399 80.6734 43.8229 80.7502 44.1123 80.7926C44.4018 80.8345 44.6952 80.8439 44.9868 80.8207C45.2799 80.7976 45.5701 80.7484 45.854 80.6737L45.8741 80.6688C45.9669 80.6463 46.0651 80.6607 46.1471 80.7089C46.2291 80.7571 46.2881 80.8351 46.3111 80.9257C46.3251 80.9815 46.3251 81.0398 46.311 81.0956C46.2068 81.442 46.0059 81.7532 45.7308 81.9944C45.4556 82.2357 45.1171 82.3974 44.7531 82.4615C44.1227 82.5878 43.4736 82.5968 42.8399 82.4879C42.2268 82.3964 41.6259 82.2399 41.0476 82.0211L40.5944 81.8299C40.4542 81.7458 40.3183 81.6526 40.1806 81.5628C39.9068 81.3823 39.6563 81.1702 39.4346 80.931C39.2189 80.6927 39.022 80.4388 38.8455 80.1715C38.6852 79.9019 38.5444 79.6217 38.4242 79.3329C38.1905 78.7681 38.0212 78.1799 37.9194 77.5789C37.7314 76.399 37.7134 75.1992 37.8662 74.0145L37.8613 74.0897C37.866 73.4483 37.6939 72.8174 37.363 72.2632C37.2893 72.1536 37.1954 72.0583 37.086 71.9822C37.0376 71.9446 36.9841 71.914 36.9269 71.8912C36.7998 71.834 36.68 71.7627 36.5696 71.6787C36.2536 71.3782 35.9928 71.0269 35.7986 70.6402C35.1068 69.288 34.5527 67.8728 34.144 66.4149C33.704 64.984 33.3537 63.5282 33.0952 62.0557C32.7968 60.5855 32.7221 59.0805 32.8735 57.5891C32.8759 57.5732 32.8846 57.5589 32.8978 57.5493C32.9109 57.5397 32.9275 57.5356 32.9437 57.5379C32.959 57.5407 32.9728 57.5488 32.9825 57.5607C32.9922 57.5726 32.9973 57.5875 32.9967 57.6027Z" fill="#272727"/>
<path d="M53.2473 38.4985C53.5625 38.3832 53.8967 38.3257 54.2333 38.329C54.5624 38.3257 54.891 38.3567 55.2135 38.4214C55.867 38.5441 56.478 38.8265 56.9894 39.2423C56.6619 39.2469 56.3347 39.2239 56.0113 39.1733C55.6974 39.1305 55.391 39.0735 55.0856 39.0128C54.4597 38.8897 53.845 38.7177 53.2473 38.4985Z" fill="#272727"/>
<path d="M61.6357 42.1433C63.407 43.607 64.8359 45.4245 65.8259 47.4732C66.848 49.4589 67.8734 51.4415 68.9602 53.3795C69.4956 54.3515 70.0495 55.314 70.6473 56.2332C70.9483 56.6857 71.2552 57.1507 71.5743 57.538C71.6692 57.6689 71.9451 57.8896 72.1365 58.088C72.344 58.2901 72.5475 58.4956 72.747 58.7046C73.5773 59.5415 74.2884 60.4837 74.8611 61.5057C75.1967 62.0736 75.3663 62.7204 75.3516 63.3758C75.3225 63.7631 75.1619 64.1299 74.8953 64.4182C74.6385 64.6669 74.3282 64.8565 73.9868 64.9735C73.9317 64.9949 73.8727 65.0056 73.8133 65.0048C73.7539 65.004 73.6953 64.9918 73.6407 64.9689C73.5862 64.946 73.5368 64.9128 73.4953 64.8712C73.4539 64.8297 73.4213 64.7806 73.3993 64.7267C73.3914 64.7068 73.3848 64.6863 73.3795 64.6656C73.2357 64.0634 73.0298 63.4771 72.7649 62.9155C72.5446 62.3737 72.1513 61.9156 71.6432 61.6092C71.3641 61.5178 71.0641 61.5059 70.7783 61.5749C70.4925 61.6438 70.2327 61.7908 70.0293 61.9985C69.5301 62.4221 69.0815 62.8995 68.6923 63.4216C68.9857 62.8234 69.3676 62.2706 69.8257 61.7808C70.0723 61.5257 70.3652 61.3175 70.6897 61.1668C71.0515 61.0071 71.4612 60.9842 71.8393 61.1027C72.5293 61.392 73.0923 61.9099 73.4291 62.565C73.7868 63.1574 74.0675 63.791 74.2648 64.4511L73.6575 64.1433C73.8512 64.0623 74.0255 63.9429 74.1694 63.7927C74.2768 63.6545 74.3331 63.4849 74.3293 63.3114C74.2955 62.8491 74.1445 62.4022 73.8899 62.0109C73.317 61.1047 72.6399 60.2654 71.8717 59.5094C71.6798 59.3138 71.4843 59.1215 71.2852 58.9326C71.0847 58.7265 70.8993 58.6094 70.6351 58.3056C70.2584 57.8518 69.9144 57.373 69.6055 56.8728C68.9935 55.9038 68.443 54.9159 67.9113 53.9199C66.8743 51.9158 65.9358 49.8762 65.0724 47.8064C64.2742 45.7374 63.1111 43.8208 61.6357 42.1433Z" fill="#272727"/>
<path d="M73.8206 64.5568C74.6407 65.3084 75.4181 66.0918 76.1838 66.8842C76.9446 67.6803 77.7003 68.4801 78.4275 69.3015C79.1611 70.1181 79.8868 70.9406 80.589 71.781C81.3056 72.6101 81.9981 73.4578 82.6827 74.3113L82.4824 74.1251L87.5697 77.5304L92.6426 80.9598L96.2934 83.5754L97.2042 85.2134C97.2042 85.2134 93.5782 83.2574 91.804 82.2209C90.0434 81.1635 88.2831 80.1058 86.5648 78.9873C84.8417 77.8744 83.1249 76.7592 81.4408 75.5838L81.4263 75.5736C81.3558 75.524 81.2932 75.4647 81.2402 75.3974C80.5681 74.5346 79.9035 73.6661 79.2636 72.7789C78.6087 71.9031 77.9777 71.0094 77.3545 70.1096C76.725 69.2148 76.1239 68.2984 75.5279 67.3782C74.9368 66.4543 74.3575 65.5215 73.8206 64.5568Z" fill="#272727"/>
<path d="M66.7102 76.3981C67.8571 77.8723 69.124 79.2538 70.4987 80.5291C71.8454 81.7967 73.3055 82.9444 74.8614 83.9586C76.4032 84.9901 78.0394 85.8803 79.7491 86.6179C80.5939 87.0234 81.4822 87.3221 82.3668 87.6567C82.8086 87.8269 83.2589 87.9753 83.716 88.1014C84.1703 88.2414 84.6257 88.3908 85.0821 88.5496C84.6041 88.518 84.1239 88.4787 83.6432 88.429C83.1605 88.3921 82.6807 88.3255 82.2067 88.2296C81.2519 88.0536 80.312 87.8084 79.3946 87.4959C78.4684 87.1958 77.5649 86.8323 76.6911 86.4081C76.2431 86.2155 75.8385 85.944 75.4099 85.7152C74.981 85.4862 74.5658 85.2337 74.1663 84.9589C73.7716 84.6775 73.3593 84.4196 72.9803 84.1187L71.8483 83.2116C71.1258 82.5726 70.442 81.8931 69.8004 81.1766C68.5055 79.7624 67.4611 78.1474 66.7102 76.3981Z" fill="#272727"/>
<path d="M30.2514 86.4755C30.5445 86.8093 30.7787 87.1884 30.9446 87.5972C31.1029 87.9775 31.2192 88.3734 31.2914 88.7778C31.3651 89.182 31.3935 89.5929 31.3761 90.0031C31.3622 90.4428 31.2726 90.8771 31.1111 91.2878C30.8167 90.9547 30.5818 90.5756 30.4162 90.1664C30.2577 89.7861 30.1419 89.3902 30.0711 88.9854C29.9987 88.581 29.9709 88.1701 29.9881 87.7599C30.0023 87.3205 30.0913 86.8864 30.2514 86.4755Z" fill="#272727"/>
<path d="M29.4934 91.3152C27.8989 94.7671 26.6806 98.3731 25.8586 102.074C25.0124 105.759 24.5688 109.521 24.535 113.298C24.5161 115.18 24.6281 117.062 24.8705 118.929C25.5642 124.537 27.5397 129.921 30.6509 134.684L30.6531 134.687C30.6886 134.742 30.7117 134.805 30.7209 134.87C30.7301 134.934 30.7252 135.001 30.7065 135.063C28.7095 141.732 26.656 148.382 24.5461 155.013C22.4559 161.652 20.2445 168.254 17.9779 174.839C15.7203 181.427 13.3132 187.965 10.7565 194.454C9.46651 197.694 8.13761 200.92 6.67592 204.095C5.94365 205.681 5.17927 207.256 4.32928 208.793C3.90746 209.562 3.456 210.319 2.95709 211.052C2.47848 211.825 1.85897 212.507 1.12912 213.063L1.14252 212.672C3.01182 213.91 4.95401 215.039 6.95905 216.054C8.95704 217.092 11.0091 218.03 13.0836 218.916C17.2424 220.673 21.5164 222.159 25.8772 223.363C34.6061 225.759 43.5854 227.181 52.6429 227.601C61.69 228.018 70.7573 227.56 79.712 226.233C88.6598 224.906 97.4819 222.87 106.09 220.143L105.712 220.903L96.0719 195.67L86.508 170.409L77.0262 145.119L67.6124 119.804L67.6108 119.8C67.5969 119.762 67.5908 119.721 67.5927 119.681L68.2248 107.858L68.5205 101.945C68.6096 99.9741 68.7053 98.0023 68.7442 96.0314C68.7443 96.0235 68.7459 96.0156 68.749 96.0083C68.7521 96.001 68.7567 95.9943 68.7625 95.9887C68.7682 95.9831 68.7751 95.9787 68.7826 95.9756C68.7901 95.9726 68.7982 95.9711 68.8063 95.9711C68.8226 95.9714 68.8382 95.9778 68.8497 95.989C68.8612 96.0003 68.8678 96.0155 68.8681 96.0314C68.8751 98.0073 68.8251 99.9803 68.7819 101.954L68.6237 107.873C68.5102 111.819 68.3794 115.765 68.2313 119.709L68.2117 119.587L77.9789 144.774L87.6782 169.986L97.2954 195.227L106.836 220.497C106.864 220.568 106.876 220.645 106.874 220.721C106.871 220.798 106.853 220.873 106.82 220.943C106.788 221.012 106.742 221.075 106.684 221.127C106.627 221.18 106.559 221.22 106.486 221.247L106.458 221.257C97.7799 223.975 88.8777 225.956 79.8505 227.18C70.8273 228.413 61.7012 228.77 52.6059 228.246C43.5189 227.692 34.5195 226.184 25.7633 223.75C21.3969 222.507 17.11 221.013 12.9251 219.274C10.8366 218.398 8.76951 217.467 6.75403 216.436C4.72286 215.423 2.75469 214.294 0.859798 213.054C0.828347 213.033 0.802547 213.005 0.784582 212.973C0.766618 212.94 0.75702 212.903 0.756606 212.866C0.756192 212.829 0.764969 212.792 0.782199 212.759C0.799429 212.726 0.824602 212.697 0.855578 212.676L0.873181 212.663C1.53979 212.14 2.10284 211.501 2.53466 210.78C3.00856 210.061 3.44159 209.309 3.84631 208.542C4.66202 207.012 5.39713 205.436 6.10047 203.847C7.50509 200.668 8.77824 197.43 10.0158 194.181C12.4852 187.678 14.7282 181.094 16.9838 174.515C19.2236 167.93 21.3617 161.311 23.5216 154.7C25.6629 148.083 27.7544 141.451 29.7961 134.803L29.8517 135.183C27.747 131.932 26.1774 128.38 25.2 124.656C24.7034 122.803 24.3505 120.917 24.1444 119.012C23.9262 117.113 23.8403 115.201 23.8875 113.29C23.9759 109.475 24.5046 105.682 25.4635 101.983C26.3812 98.2847 27.6949 94.6906 29.383 91.2603C29.3901 91.246 29.4028 91.235 29.4182 91.2297C29.4336 91.2245 29.4505 91.2253 29.4652 91.2321C29.48 91.239 29.4913 91.2512 29.4969 91.2662C29.5025 91.2811 29.5017 91.2976 29.4949 91.3121L29.4934 91.3152Z" fill="#272727"/>
<path d="M43.519 90.3397L29.438 91.2875C29.438 91.2875 25.0086 100.49 25.3058 103.594C25.3058 103.594 42.2538 93.0285 43.519 90.3397Z" fill="#F58024"/>
<path d="M67.9138 119.694C67.2753 119.021 66.7009 118.293 66.1977 117.518C65.6959 116.762 65.225 115.988 64.7975 115.19C64.37 114.391 63.9859 113.569 63.639 112.729C63.2763 111.884 62.9902 111.01 62.784 110.116C63.4138 110.794 63.9838 111.522 64.4877 112.293C64.9958 113.049 65.4646 113.827 65.8941 114.627C66.326 115.425 66.7148 116.245 67.0588 117.082C67.4215 117.927 67.7076 118.801 67.9138 119.694C67.9138 119.694 68.8059 100.23 68.8059 96.0335L67.3686 95.961C65.6401 96.5354 58.8685 94.4009 58.8685 94.4009C46.1554 138.083 27.1415 129.085 27.1415 129.085L30.2517 134.932C31.5217 136.238 32.6927 137.617 33.8326 139.014C34.9726 140.411 36.0568 141.844 37.1286 143.289C38.188 144.746 39.2289 146.216 40.2078 147.721C41.199 149.221 42.1531 150.751 43.0081 152.347C41.7318 151.041 40.5609 149.668 39.4209 148.271C38.281 146.875 37.1968 145.436 36.125 143.99C35.0717 142.533 34.0309 141.07 33.0458 139.558C32.0607 138.058 31.1066 136.529 30.2517 134.932C30.2517 134.932 8.1401 208.509 1.00293 212.863C1.00293 212.863 41.1495 241.162 106.276 220.699L67.9138 119.694ZM5.42029 213.728C5.17913 213.72 4.95051 213.621 4.78272 213.452C4.61494 213.282 4.52114 213.056 4.52114 212.821C4.52114 212.585 4.61494 212.359 4.78272 212.19C4.95051 212.02 5.17913 211.921 5.42029 211.914C5.66146 211.921 5.89009 212.02 6.05787 212.19C6.22566 212.359 6.31946 212.585 6.31946 212.821C6.31946 213.056 6.22566 213.282 6.05787 213.452C5.89009 213.621 5.66146 213.72 5.42029 213.728ZM10.3271 216.122C10.0859 216.114 9.85733 216.015 9.68957 215.846C9.5218 215.677 9.42801 215.451 9.42801 215.215C9.42801 214.98 9.5218 214.753 9.68957 214.584C9.85733 214.415 10.0859 214.316 10.3271 214.308C10.5682 214.316 10.7968 214.415 10.9646 214.584C11.1324 214.753 11.2261 214.98 11.2261 215.215C11.2261 215.451 11.1323 215.677 10.9646 215.846C10.7968 216.015 10.5682 216.114 10.3271 216.122H10.3271ZM15.2339 218.299C14.9927 218.291 14.7641 218.192 14.5963 218.023C14.4285 217.854 14.3347 217.627 14.3347 217.392C14.3347 217.156 14.4285 216.93 14.5963 216.761C14.7641 216.592 14.9927 216.493 15.2339 216.485C15.475 216.493 15.7035 216.592 15.8712 216.761C16.0389 216.93 16.1327 217.157 16.1327 217.392C16.1327 217.627 16.0389 217.854 15.8712 218.023C15.7035 218.192 15.475 218.291 15.2339 218.299V218.299ZM21.2559 220.476C21.0147 220.468 20.7861 220.369 20.6184 220.2C20.4506 220.031 20.3568 219.804 20.3568 219.569C20.3568 219.333 20.4506 219.107 20.6184 218.938C20.7861 218.769 21.0147 218.67 21.2559 218.662C21.4969 218.67 21.7254 218.769 21.8931 218.938C22.0608 219.107 22.1545 219.333 22.1545 219.569C22.1545 219.804 22.0608 220.03 21.8931 220.2C21.7254 220.369 21.4969 220.468 21.2559 220.476V220.476ZM27.9469 222.217C27.7058 222.209 27.4772 222.111 27.3094 221.941C27.1416 221.772 27.0478 221.546 27.0478 221.31C27.0478 221.075 27.1416 220.848 27.3094 220.679C27.4772 220.51 27.7058 220.411 27.9469 220.403C28.188 220.411 28.4166 220.51 28.5843 220.679C28.752 220.849 28.8457 221.075 28.8457 221.31C28.8457 221.546 28.752 221.772 28.5843 221.941C28.4166 222.11 28.188 222.209 27.9469 222.217V222.217ZM34.8611 223.741C34.6199 223.733 34.3913 223.634 34.2236 223.465C34.0558 223.296 33.962 223.07 33.962 222.834C33.962 222.599 34.0558 222.372 34.2236 222.203C34.3913 222.034 34.6199 221.935 34.8611 221.927C35.1022 221.935 35.3307 222.034 35.4983 222.203C35.666 222.372 35.7598 222.599 35.7598 222.834C35.7598 223.069 35.666 223.296 35.4983 223.465C35.3307 223.634 35.1022 223.733 34.8611 223.741V223.741ZM41.5522 224.829C41.311 224.822 41.0824 224.723 40.9146 224.553C40.7468 224.384 40.653 224.158 40.653 223.922C40.653 223.687 40.7468 223.461 40.9146 223.291C41.0824 223.122 41.311 223.023 41.5522 223.015C41.7933 223.023 42.0218 223.122 42.1895 223.291C42.3572 223.461 42.4509 223.687 42.4509 223.922C42.4509 224.158 42.3572 224.384 42.1895 224.553C42.0218 224.723 41.7933 224.822 41.5522 224.829V224.829ZM48.0202 225.482C47.7791 225.475 47.5504 225.376 47.3826 225.207C47.2149 225.037 47.1211 224.811 47.1211 224.575C47.1211 224.34 47.2149 224.114 47.3826 223.944C47.5504 223.775 47.7791 223.676 48.0202 223.668C48.2613 223.676 48.4898 223.775 48.6575 223.945C48.8252 224.114 48.919 224.34 48.919 224.575C48.919 224.811 48.8252 225.037 48.6575 225.206C48.4898 225.376 48.2613 225.475 48.0202 225.482V225.482ZM54.0422 225.918C53.8011 225.91 53.5724 225.811 53.4046 225.642C53.2369 225.473 53.1431 225.246 53.1431 225.011C53.1431 224.775 53.2369 224.549 53.4046 224.38C53.5724 224.211 53.8011 224.112 54.0422 224.104C54.2833 224.112 54.5118 224.211 54.6795 224.38C54.8472 224.549 54.941 224.775 54.941 225.011C54.941 225.246 54.8472 225.473 54.6795 225.642C54.5118 225.811 54.2833 225.91 54.0422 225.918V225.918ZM60.5102 225.918C60.2691 225.91 60.0404 225.811 59.8727 225.642C59.7049 225.473 59.6111 225.246 59.6111 225.011C59.6111 224.775 59.7049 224.549 59.8727 224.38C60.0404 224.211 60.2691 224.112 60.5102 224.104C60.7513 224.112 60.9799 224.211 61.1476 224.38C61.3153 224.549 61.409 224.775 61.409 225.011C61.409 225.246 61.3153 225.473 61.1476 225.642C60.9799 225.811 60.7513 225.91 60.5102 225.918V225.918ZM66.7553 225.7C66.5141 225.692 66.2855 225.593 66.1177 225.424C65.95 225.255 65.8562 225.029 65.8562 224.793C65.8562 224.558 65.95 224.331 66.1177 224.162C66.2855 223.993 66.5141 223.894 66.7553 223.886C66.9963 223.894 67.2248 223.993 67.3925 224.162C67.5602 224.332 67.6539 224.558 67.6539 224.793C67.6539 225.029 67.5602 225.255 67.3925 225.424C67.2248 225.593 66.9963 225.692 66.7553 225.7V225.7ZM73.0003 225.265C72.7591 225.257 72.5305 225.158 72.3627 224.989C72.1949 224.82 72.1011 224.593 72.1011 224.358C72.1011 224.122 72.1949 223.896 72.3627 223.727C72.5305 223.557 72.7591 223.459 73.0003 223.451C73.2414 223.459 73.47 223.558 73.6377 223.727C73.8054 223.896 73.8992 224.122 73.8992 224.358C73.8992 224.593 73.8054 224.819 73.6377 224.989C73.47 225.158 73.2414 225.257 73.0003 225.265V225.265ZM79.0222 224.829C78.7811 224.822 78.5525 224.723 78.3847 224.553C78.2169 224.384 78.1231 224.158 78.1231 223.922C78.1231 223.687 78.2169 223.461 78.3847 223.291C78.5525 223.122 78.7811 223.023 79.0222 223.015C79.2633 223.023 79.4919 223.122 79.6596 223.291C79.8273 223.461 79.921 223.687 79.921 223.922C79.921 224.158 79.8273 224.384 79.6596 224.553C79.4919 224.723 79.2633 224.822 79.0222 224.829V224.829ZM85.0442 223.741C84.8031 223.733 84.5745 223.634 84.4067 223.465C84.239 223.296 84.1452 223.07 84.1452 222.834C84.1452 222.599 84.239 222.372 84.4067 222.203C84.5745 222.034 84.8031 221.935 85.0442 221.927C85.2853 221.935 85.5138 222.034 85.6815 222.203C85.8492 222.372 85.9429 222.599 85.9429 222.834C85.9429 223.069 85.8492 223.296 85.6815 223.465C85.5138 223.634 85.2853 223.733 85.0442 223.741V223.741ZM91.2893 222.435C91.0481 222.427 90.8195 222.328 90.6518 222.159C90.484 221.99 90.3902 221.763 90.3902 221.528C90.3902 221.292 90.484 221.066 90.6518 220.897C90.8195 220.728 91.0481 220.629 91.2893 220.621C91.5303 220.629 91.7588 220.728 91.9265 220.897C92.0942 221.066 92.1879 221.292 92.1879 221.528C92.1879 221.763 92.0942 221.99 91.9265 222.159C91.7588 222.328 91.5303 222.427 91.2893 222.435V222.435ZM96.8652 220.911C96.624 220.903 96.3954 220.804 96.2276 220.635C96.0598 220.466 95.966 220.24 95.966 220.004C95.966 219.769 96.0598 219.542 96.2276 219.373C96.3954 219.204 96.624 219.105 96.8652 219.097C97.1063 219.105 97.3348 219.204 97.5025 219.373C97.6702 219.542 97.764 219.769 97.764 220.004C97.764 220.24 97.6702 220.466 97.5025 220.635C97.3348 220.804 97.1063 220.903 96.8652 220.911V220.911ZM102.664 218.952C102.423 218.944 102.194 218.845 102.027 218.676C101.859 218.507 101.765 218.28 101.765 218.045C101.765 217.809 101.859 217.583 102.027 217.414C102.194 217.245 102.423 217.146 102.664 217.138C102.905 217.146 103.134 217.245 103.301 217.414C103.469 217.583 103.563 217.81 103.563 218.045C103.563 218.28 103.469 218.507 103.301 218.676C103.134 218.845 102.905 218.944 102.664 218.952V218.952Z" fill="#F58024"/>
<path d="M57.3549 21.1124C57.5355 21.1063 57.7067 21.0319 57.8323 20.905C57.9579 20.7781 58.0281 20.6086 58.0281 20.4322C58.0281 20.2558 57.9579 20.0862 57.8323 19.9593C57.7067 19.8324 57.5355 19.7581 57.3549 19.752C57.1742 19.7581 57.003 19.8324 56.8774 19.9593C56.7518 20.0862 56.6816 20.2558 56.6816 20.4322C56.6816 20.6086 56.7518 20.7781 56.8774 20.905C57.003 21.0319 57.1742 21.1063 57.3549 21.1124Z" fill="#272727"/>
<path d="M55.4216 17.4933C55.6707 17.22 55.9895 17.0161 56.3456 16.9024C56.681 16.7899 57.0364 16.7457 57.39 16.7727C57.7641 16.7945 58.1267 16.9074 58.4448 17.101C58.6203 17.1978 58.7707 17.3325 58.8846 17.4949C58.9985 17.6572 59.0728 17.8428 59.1017 18.0375C58.7795 18.0006 58.4547 17.9885 58.1305 18.0012C57.8541 17.9992 57.5788 18.0007 57.295 17.9783C56.9977 17.9552 56.7023 17.9116 56.4112 17.848C56.067 17.772 55.7344 17.6528 55.4216 17.4933Z" fill="#272727"/>
<path d="M25.3418 103.42C27.279 101.978 29.2332 100.583 31.1847 99.1894C33.1279 97.7849 35.074 96.3928 36.9848 94.9606C37.9454 94.2513 38.8963 93.5309 39.8271 92.7885C40.3061 92.4319 40.7673 92.057 41.2234 91.6764C41.674 91.2906 42.1585 90.9365 42.5961 90.5386C44.4603 89.0519 46.1111 87.327 47.5039 85.4105C47.2489 85.9424 47.0189 86.5079 46.7081 87.0253C46.3742 87.5241 46.0442 88.0355 45.6839 88.5226L44.5204 89.9177C44.1125 90.3641 43.6805 90.7874 43.2604 91.2244C41.5306 92.9105 39.6852 94.4796 37.7369 95.9208C35.7883 97.3509 33.7921 98.7142 31.7251 99.9676C29.6675 101.238 27.5361 102.39 25.3418 103.42Z" fill="#272727"/>
<path d="M62.7825 48.5477C63.7403 50.2116 64.6507 51.9047 65.4719 53.6406C66.2969 55.3743 67.0687 57.136 67.7211 58.9472C68.4165 60.7598 68.8848 62.6478 69.116 64.5701C69.2376 65.5676 69.1634 66.5785 68.8973 67.5489C68.7356 68.0606 68.4656 68.5335 68.1049 68.9371C67.7142 69.3303 67.2335 69.6276 66.7024 69.8044L66.9985 69.3897C67.1056 71.0356 67.2414 72.6872 67.4201 74.3256C67.5103 75.1446 67.612 75.9621 67.7429 76.767C67.8097 77.1687 67.8755 77.57 67.9649 77.9548C68.0094 78.1464 68.0583 78.3351 68.1156 78.5058C68.1406 78.5825 68.1706 78.6576 68.2055 78.7306C68.2287 78.7986 68.2815 78.8174 68.1943 78.7645L68.1244 79.681L65.1807 80.9444C65.0885 80.9839 64.9868 80.9977 64.887 80.9842C64.7872 80.9707 64.6932 80.9304 64.6155 80.8679C64.5378 80.8053 64.4794 80.7229 64.4469 80.6298C64.4143 80.5367 64.4089 80.4367 64.4312 80.3408L64.4334 80.3314C64.8464 78.5068 65.128 76.6562 65.2762 74.7932C65.4061 72.9228 65.4486 71.0463 65.4036 69.1639C65.3434 67.2841 65.2433 65.4033 65.0486 63.5278C64.8703 61.6518 64.6609 59.7764 64.3837 57.9085C63.8487 54.1706 63.1267 50.4545 62.2692 46.7705C61.8368 44.9398 61.3715 43.0707 60.8402 41.3117C60.634 40.5029 60.1498 39.7875 59.4685 39.2851C59.1122 39.125 58.716 39.0689 58.3277 39.1236C57.9395 39.1783 57.5757 39.3415 57.2803 39.5934L57.317 39.5613L57.3108 39.5672L57.3639 38.9905C58.5831 40.8488 59.4118 42.9252 59.8018 45.0988C60.2096 47.2321 60.3775 49.4025 60.3023 51.5713C60.2314 53.7253 60.0151 55.8724 59.6545 57.9985C59.3114 60.1208 58.829 62.2194 58.2102 64.2814C58.7016 62.1937 59.0789 60.0821 59.3405 57.9553C59.6099 55.8362 59.7358 53.702 59.7174 51.5668C59.7227 49.4445 59.501 47.3276 59.0557 45.2503C58.6354 43.1959 57.8018 41.2432 56.6032 39.5052C56.5418 39.4193 56.513 39.3152 56.5218 39.2108C56.5306 39.1065 56.5763 39.0083 56.6512 38.9333L56.6563 38.9283L56.6623 38.9223C56.6739 38.9108 56.6863 38.9 56.6992 38.89C57.1403 38.545 57.6582 38.3058 58.2113 38.1917C58.8024 38.0697 59.4186 38.155 59.9517 38.4326C60.8769 39.0272 61.5472 39.9318 61.8361 40.9756C62.4208 42.8487 62.8844 44.6659 63.3421 46.5264C64.2376 50.2321 64.9966 53.9702 65.5687 57.741C66.171 61.5142 66.5118 65.3229 66.5888 69.1409C66.6193 71.0532 66.5599 72.9668 66.4104 74.8819C66.2417 76.8004 65.9352 78.7049 65.4931 80.5814L64.7459 79.9686L67.7001 78.7286L67.6302 79.6449C67.4623 79.5269 67.3307 79.3663 67.2496 79.1806C67.1948 79.0657 67.1478 78.9473 67.1091 78.8263C67.0362 78.6024 66.9835 78.3884 66.9358 78.1753C66.8433 77.7502 66.7719 77.3327 66.7155 76.9142C66.6012 76.0784 66.5193 75.2469 66.4488 74.4154C66.31 72.7521 66.2158 71.0944 66.1496 69.4286C66.1461 69.3392 66.1719 69.2511 66.2233 69.1771C66.2747 69.103 66.349 69.047 66.4354 69.0171L66.4459 69.0136C66.8458 68.8895 67.211 68.6768 67.5128 68.3922C67.8018 68.0797 68.0215 67.7124 68.1583 67.3132C68.4156 66.4403 68.502 65.5279 68.4129 64.6238C68.2229 62.7483 67.8244 60.8985 67.2245 59.1071C66.0188 55.483 64.5338 51.9532 62.7825 48.5477Z" fill="#272727"/>
<path d="M27.1392 129.082C29.2059 129.821 31.4391 130.001 33.6019 129.602C34.6684 129.426 35.7107 129.131 36.7083 128.723C37.213 128.539 37.6866 128.278 38.1761 128.061C38.6393 127.789 39.1221 127.554 39.5673 127.255C43.1901 124.933 46.0124 121.576 48.3579 117.996C50.6696 114.351 52.6587 110.52 54.3034 106.545C55.9807 102.569 57.4596 98.5023 58.8719 94.399C57.9463 98.6403 56.7206 102.814 55.2037 106.89C53.6973 110.997 51.7525 114.937 49.4012 118.647C48.1913 120.498 46.8209 122.245 45.305 123.867C43.7696 125.494 42.0086 126.904 40.0732 128.055C38.1277 129.212 35.9463 129.939 33.682 130.186C32.5587 130.296 31.4255 130.263 30.311 130.087C29.2041 129.925 28.1322 129.586 27.1392 129.082Z" fill="#272727"/>
<path d="M93.5729 78.0897C93.6369 78.0356 93.6583 78.1815 93.7166 78.2487L93.8588 78.497L94.1377 78.996L94.6796 80.0017C95.0322 80.6764 95.3757 81.3554 95.7102 82.0387C96.3808 83.4045 97.0097 84.7893 97.6139 86.1841C98.8198 88.9748 99.9189 91.8066 100.911 94.6796C102.889 100.425 104.494 106.287 105.716 112.23C106.943 118.174 107.808 124.185 108.306 130.229C108.801 136.276 108.952 142.346 108.758 148.409L108.315 147.952L159.673 148.797L159.315 148.918C160.762 147.795 162.28 146.763 163.861 145.828C165.437 144.885 167.076 144.047 168.767 143.318C170.471 142.579 172.245 142.005 174.065 141.604C175.916 141.194 177.823 141.073 179.714 141.248L178.917 141.879C179.929 130.291 180.828 118.693 181.614 107.085C181.998 101.283 182.352 95.4794 182.627 89.6783C182.76 86.778 182.871 83.8771 182.916 80.984C182.934 79.5382 182.953 78.093 182.918 76.6613C182.9 75.9465 182.871 75.2328 182.811 74.5406C182.78 74.1959 182.741 73.8543 182.685 73.5415C182.661 73.4022 182.628 73.2644 182.588 73.1288C182.571 73.0764 182.553 73.0366 182.55 73.0282C182.573 73.0358 182.526 73.0876 182.838 73.251L183.184 73.3243C179.175 73.2225 175.15 73.1735 171.132 73.1608C167.113 73.141 163.094 73.1456 159.079 73.2263C155.065 73.308 151.051 73.4461 147.06 73.7423C145.066 73.8929 143.075 74.0828 141.115 74.3753C140.137 74.5238 139.163 74.6955 138.224 74.9301C137.344 75.1022 136.507 75.437 135.756 75.9164L135.721 75.9447C135.613 76.0323 135.478 76.0832 135.338 76.0898L93.5729 78.0897ZM93.4087 78.0047L114.151 76.3694L135.25 74.7537L134.832 74.927C135.729 74.2692 136.761 73.8093 137.858 73.5791C138.866 73.3138 139.873 73.1237 140.881 72.9571C142.897 72.6299 144.914 72.4119 146.931 72.2331C150.965 71.8812 155 71.6907 159.034 71.5563C167.104 71.29 175.163 71.2917 183.236 71.4631L183.287 71.4642C183.39 71.4668 183.49 71.4915 183.582 71.5366C183.869 71.6624 184.1 71.8823 184.238 72.158C184.306 72.2882 184.362 72.4236 184.408 72.563C184.474 72.7757 184.528 72.9922 184.567 73.2113C184.64 73.6148 184.684 73.9968 184.719 74.3763C184.788 75.1334 184.82 75.8738 184.841 76.6129C184.88 78.0896 184.878 79.5541 184.846 81.0169C184.784 83.9412 184.655 86.8546 184.506 89.7659C184.207 95.5879 183.799 101.398 183.356 107.204C182.469 118.816 181.438 130.411 180.344 142.005C180.336 142.096 180.309 142.185 180.266 142.266C180.222 142.348 180.163 142.42 180.091 142.479C180.019 142.538 179.936 142.582 179.846 142.61C179.757 142.637 179.663 142.647 179.569 142.639L179.546 142.637C177.808 142.453 176.051 142.539 174.34 142.893C172.6 143.25 170.9 143.772 169.264 144.453C167.613 145.136 166.011 145.925 164.468 146.817C162.92 147.701 161.431 148.679 160.01 149.747L159.998 149.756C159.9 149.831 159.777 149.87 159.652 149.868L108.298 148.833C108.239 148.832 108.181 148.82 108.127 148.797C108.073 148.774 108.023 148.741 107.982 148.7C107.941 148.658 107.909 148.61 107.887 148.556C107.865 148.502 107.854 148.445 107.855 148.387L107.856 148.376C108.109 142.345 108.018 136.304 107.585 130.283C107.148 124.258 106.345 118.264 105.182 112.332C104.022 106.397 102.479 100.539 100.565 94.7922C99.6014 91.9211 98.5331 89.0862 97.3596 86.2876C96.7707 84.8906 96.1569 83.5032 95.5016 82.1347C95.1755 81.4497 94.8396 80.7694 94.4939 80.0937L93.9637 79.0864L93.691 78.587L93.5521 78.3389C93.5151 78.2415 93.4424 78.2221 93.4087 78.0047H93.4087Z" fill="#272727"/>
<path d="M150.345 80.4554C151.84 85.9441 153.165 91.473 154.321 97.0422C155.498 102.604 156.53 108.194 157.418 113.813C158.282 119.432 159.02 125.076 159.425 130.754C159.638 133.591 159.749 136.438 159.721 139.286C159.725 142.134 159.452 144.977 158.904 147.774C159.212 144.958 159.283 142.122 159.114 139.295C158.997 136.469 158.757 133.649 158.461 130.834C157.863 125.206 157.076 119.594 156.194 113.995C155.33 108.393 154.356 102.806 153.374 97.2172L150.345 80.4554Z" fill="#272727"/>
<path d="M104.323 77.3674C103.419 76.6782 102.711 75.7739 102.268 74.7413C101.825 73.7086 101.66 72.5822 101.79 71.4697C101.93 70.2879 102.359 69.1561 103.041 68.1702C103.217 67.9247 103.41 67.6874 103.608 67.4536C103.82 67.2434 104.049 67.0109 104.258 66.8203C104.663 66.4614 105.069 66.1012 105.492 65.7599C107.175 64.3666 108.979 63.1184 110.884 62.0295C111.841 61.4809 112.833 60.9858 113.847 60.5286C114.357 60.3044 114.873 60.0934 115.396 59.8958C115.643 59.792 115.952 59.7026 116.237 59.6091C116.524 59.5089 116.817 59.4272 117.115 59.3646C119.501 58.8091 122.003 58.9752 124.29 59.8409C126.545 60.6982 128.479 62.2076 129.831 64.1671C130.161 64.6448 130.455 65.145 130.712 65.664L131.384 67.0889L132.696 69.9558C133.533 71.8875 134.379 73.8142 135.1 75.8072C133.774 74.1363 132.572 72.399 131.361 70.6667L129.602 68.0378L128.738 66.7147C128.473 66.3234 128.186 65.9469 127.877 65.5871C126.663 64.1761 125.073 63.1199 123.283 62.535C122.406 62.2495 121.491 62.0867 120.567 62.0515C119.649 61.9975 118.727 62.0828 117.835 62.3043C117.61 62.3469 117.388 62.4061 117.171 62.4812C116.949 62.5532 116.742 62.6024 116.496 62.7019C116.019 62.8738 115.55 63.0675 115.078 63.2571C114.134 63.6385 113.213 64.0797 112.297 64.5361C110.457 65.4713 108.675 66.5102 106.959 67.6474L105.668 68.5179L105.124 68.9276C104.965 69.0818 104.79 69.2254 104.632 69.3858C103.998 70.0562 103.534 70.8625 103.278 71.7399C103.002 72.6937 102.953 73.6964 103.134 74.6716C103.315 75.6467 103.722 76.5687 104.323 77.3674Z" fill="#272727"/>
<path d="M134.773 75.3381C135.102 73.548 135.651 71.803 136.407 70.1409C137.153 68.4476 138.082 66.8362 139.176 65.3337C140.297 63.8085 141.601 62.4201 143.061 61.1983C144.554 59.9622 146.219 58.9381 148.005 58.1563L148.685 57.8792C148.922 57.7782 149.165 57.6891 149.411 57.6121C149.971 57.4295 150.554 57.3227 151.144 57.2948C152.353 57.2319 153.555 57.5134 154.603 58.1049C155.636 58.6834 156.496 59.5167 157.095 60.5214C157.695 61.5261 158.014 62.6669 158.019 63.8295C158.007 65.0198 157.632 66.1796 156.942 67.1614C156.294 68.0372 155.477 68.7809 154.536 69.3506C152.852 70.3663 151.006 71.0987 149.073 71.5173L149.262 71.446L145.86 72.8498L142.428 74.1954L142.326 74.2357C142.311 74.2413 142.296 74.2455 142.281 74.2481C140.927 74.4791 139.578 74.6786 138.31 74.841C137.042 74.9999 135.863 75.1552 134.773 75.3381ZM134.773 75.3381C136.121 74.9106 137.38 74.4555 138.55 74.0041C139.72 73.5561 140.808 73.1451 141.891 72.7657L141.744 72.8183L144.952 71.023L148.189 69.2861C148.207 69.2767 148.225 69.2686 148.244 69.262L148.379 69.2147C149.987 68.7011 151.515 67.9705 152.917 67.0443C153.517 66.6391 154.038 66.132 154.455 65.5472C154.792 65.0341 154.966 64.4349 154.954 63.8254C154.931 63.1923 154.746 62.5749 154.416 62.0296C154.086 61.4843 153.621 61.0284 153.064 60.7037C152.65 60.4672 152.191 60.317 151.716 60.2625C151.24 60.208 150.758 60.2505 150.3 60.3872C150.155 60.417 149.927 60.5124 149.735 60.5745L149.136 60.7843C145.922 62.0637 143.049 64.0409 140.735 66.5657C138.311 69.1834 136.301 72.1403 134.773 75.3381Z" fill="#272727"/>
<path d="M38.3594 23.0847C36.8826 24.3485 35.6138 25.8267 34.5977 27.4672C33.5874 29.0845 32.7518 30.7997 32.1042 32.5853L31.6202 33.9272L31.2314 35.302C30.9183 36.2067 30.7967 37.1587 30.5436 38.0854C30.3516 39.0238 30.2083 39.9746 30.0182 40.924C29.8875 41.8799 29.7668 42.8406 29.586 43.8079C29.4916 42.8374 29.4497 41.8597 29.4116 40.8781C29.4604 39.9025 29.4742 38.9164 29.5883 37.9395C29.8078 35.9728 30.2614 34.0377 30.9399 32.1735C31.6258 30.299 32.5911 28.5334 33.8046 26.9337C34.9908 25.3182 36.5515 23.9993 38.3594 23.0847Z" fill="#272727"/>
<path d="M144.123 178.259C146.065 187.152 147.637 196.102 149.118 205.066C149.838 209.551 150.542 214.039 151.176 218.537C151.826 223.033 152.398 227.542 152.89 232.062C151.922 227.615 151.032 223.157 150.221 218.685C149.393 214.217 148.636 209.737 147.895 205.255C146.453 196.285 145.103 187.301 144.123 178.259Z" fill="#272727"/>
<path d="M108.408 200.014C111.445 199.462 114.486 198.97 117.53 198.541L122.098 197.91L126.67 197.352C132.767 196.628 138.872 196.02 144.983 195.526C148.036 195.241 151.095 195.045 154.153 194.842C157.212 194.648 160.268 194.398 163.331 194.274L172.516 193.824L181.711 193.539L181.093 193.654C183.62 192.903 186.18 192.246 188.722 191.537C191.262 190.822 193.83 190.19 196.39 189.535C198.944 188.862 201.531 188.288 204.104 187.67L207.988 186.816C209.284 186.537 210.593 186.294 211.895 186.031L211.912 186.028C211.951 186.02 211.991 186.027 212.024 186.047C212.058 186.067 212.082 186.099 212.092 186.136C212.103 186.173 212.098 186.212 212.079 186.246C212.061 186.28 212.03 186.306 211.992 186.318L181.933 196.128C181.912 196.135 181.891 196.139 181.869 196.14L163.513 197.259L145.151 198.289L108.426 200.316C108.387 200.318 108.349 200.306 108.318 200.281C108.288 200.257 108.269 200.222 108.264 200.184C108.26 200.146 108.27 200.108 108.293 200.077C108.316 200.046 108.351 200.025 108.389 200.018L108.408 200.014Z" fill="#272727"/>
<path d="M110.901 215.088C114.007 214.816 117.11 214.602 120.211 214.463L124.862 214.259L129.51 214.127C135.706 213.974 141.899 213.939 148.086 214.021C151.182 214.019 154.273 214.129 157.366 214.203C160.459 214.285 163.552 214.346 166.641 214.506L175.912 214.928L185.177 215.51L184.207 215.673L191.457 213.226C193.867 212.394 196.319 211.665 198.749 210.883C201.177 210.095 203.647 209.409 206.093 208.667L209.796 207.634L213.524 206.665L213.542 206.661C213.58 206.651 213.62 206.655 213.655 206.674C213.689 206.692 213.715 206.722 213.728 206.759C213.74 206.795 213.738 206.835 213.721 206.87C213.705 206.905 213.675 206.932 213.639 206.946L185.181 218.069C185.15 218.081 185.116 218.087 185.082 218.086L166.531 217.487C160.348 217.291 154.166 217.027 147.984 216.801L110.89 215.39C110.851 215.388 110.814 215.372 110.786 215.345C110.758 215.318 110.742 215.281 110.741 215.243C110.74 215.205 110.754 215.167 110.781 215.139C110.807 215.11 110.843 215.092 110.882 215.089L110.901 215.088Z" fill="#272727"/>
<path d="M102.444 132.444C107.084 131.956 111.714 131.709 116.34 131.556L119.81 131.442L123.276 131.395C125.587 131.369 127.899 131.323 130.206 131.366L137.131 131.443L144.05 131.66C146.358 131.712 148.661 131.844 150.965 131.969C153.269 132.1 155.575 132.194 157.877 132.356L156.99 132.466L165.057 130.353C167.766 129.712 170.463 129.033 173.182 128.424C175.905 127.831 178.623 127.218 181.371 126.702C182.738 126.422 184.115 126.174 185.495 125.936C186.872 125.686 188.259 125.47 189.651 125.272L189.674 125.269C189.712 125.264 189.751 125.273 189.783 125.294C189.815 125.315 189.838 125.348 189.846 125.385C189.855 125.422 189.849 125.46 189.83 125.493C189.81 125.526 189.779 125.55 189.742 125.561L173.801 130.404L157.846 135.199C157.815 135.208 157.782 135.212 157.75 135.211L143.918 134.645L130.088 134.029L116.258 133.412L102.43 132.746C102.391 132.744 102.355 132.728 102.328 132.701C102.301 132.674 102.285 132.638 102.284 132.6C102.283 132.562 102.296 132.526 102.322 132.497C102.347 132.468 102.383 132.45 102.421 132.446L102.444 132.444Z" fill="#272727"/>
<path d="M187.628 251.393C191.936 251.393 195.428 247.985 195.428 243.781C195.428 239.577 191.936 236.169 187.628 236.169C183.321 236.169 179.829 239.577 179.829 243.781C179.829 247.985 183.321 251.393 187.628 251.393Z" fill="#272727"/>
<path d="M105.403 236.657C105.242 236.609 105.087 236.561 104.932 236.513C105.1 236.514 105.264 236.565 105.403 236.657Z" fill="white"/>
<path d="M29.0603 127.959C29.3012 127.951 29.5294 127.852 29.6969 127.683C29.8644 127.513 29.958 127.287 29.958 127.052C29.958 126.817 29.8644 126.591 29.6969 126.421C29.5294 126.252 29.3012 126.153 29.0603 126.145C28.8194 126.153 28.5911 126.252 28.4237 126.421C28.2562 126.591 28.1626 126.817 28.1626 127.052C28.1626 127.287 28.2562 127.513 28.4237 127.683C28.5911 127.852 28.8194 127.951 29.0603 127.959Z" fill="#272727"/>
<path d="M34.4132 127.525C34.6541 127.517 34.8824 127.418 35.0498 127.248C35.2173 127.079 35.311 126.853 35.311 126.618C35.311 126.383 35.2173 126.157 35.0498 125.987C34.8824 125.818 34.6541 125.719 34.4132 125.711C34.1723 125.719 33.944 125.818 33.7765 125.987C33.609 126.157 33.5154 126.383 33.5154 126.618C33.5154 126.853 33.609 127.079 33.7765 127.248C33.944 127.418 34.1723 127.517 34.4132 127.525Z" fill="#272727"/>
<path d="M39.766 124.258C40.0069 124.25 40.2351 124.151 40.4026 123.982C40.5701 123.813 40.6637 123.587 40.6637 123.351C40.6637 123.116 40.5701 122.89 40.4026 122.721C40.2351 122.552 40.0069 122.452 39.766 122.444C39.525 122.452 39.2968 122.552 39.1293 122.721C38.9618 122.89 38.8682 123.116 38.8682 123.351C38.8682 123.587 38.9618 123.813 39.1293 123.982C39.2968 124.151 39.525 124.25 39.766 124.258Z" fill="#272727"/>
<path d="M45.1191 118.816C45.36 118.808 45.5883 118.709 45.7558 118.54C45.9232 118.37 46.0168 118.144 46.0168 117.909C46.0168 117.674 45.9232 117.448 45.7558 117.278C45.5883 117.109 45.36 117.01 45.1191 117.002C44.8782 117.01 44.65 117.109 44.4825 117.278C44.315 117.448 44.2214 117.674 44.2214 117.909C44.2214 118.144 44.315 118.37 44.4825 118.54C44.65 118.709 44.8782 118.808 45.1191 118.816Z" fill="#272727"/>
<path d="M49.3569 112.94C49.5978 112.931 49.8261 112.832 49.9935 112.663C50.161 112.494 50.2546 112.268 50.2546 112.032C50.2546 111.797 50.161 111.571 49.9935 111.402C49.8261 111.233 49.5978 111.134 49.3569 111.125C49.116 111.134 48.8878 111.233 48.7203 111.402C48.5528 111.571 48.4592 111.797 48.4592 112.032C48.4592 112.268 48.5528 112.494 48.7203 112.663C48.8878 112.832 49.116 112.931 49.3569 112.94Z" fill="#272727"/>
<path d="M52.2561 107.28C52.497 107.272 52.7252 107.173 52.8927 107.004C53.0602 106.834 53.1538 106.608 53.1538 106.373C53.1538 106.138 53.0602 105.912 52.8927 105.742C52.7252 105.573 52.497 105.474 52.2561 105.466C52.0152 105.474 51.7869 105.573 51.6195 105.742C51.452 105.912 51.3584 106.138 51.3584 106.373C51.3584 106.608 51.452 106.834 51.6195 107.004C51.7869 107.173 52.0152 107.272 52.2561 107.28Z" fill="#272727"/>
<path d="M54.7095 101.838C54.9505 101.829 55.1787 101.73 55.3462 101.561C55.5137 101.392 55.6073 101.166 55.6073 100.931C55.6073 100.695 55.5137 100.469 55.3462 100.3C55.1787 100.131 54.9505 100.032 54.7095 100.024C54.4686 100.032 54.2404 100.131 54.0729 100.3C53.9054 100.469 53.8118 100.695 53.8118 100.931C53.8118 101.166 53.9054 101.392 54.0729 101.561C54.2404 101.73 54.4686 101.829 54.7095 101.838Z" fill="#272727"/>
<path d="M56.7169 95.9595C56.9578 95.9514 57.1861 95.8523 57.3536 95.683C57.521 95.5138 57.6147 95.2877 57.6147 95.0524C57.6147 94.8171 57.521 94.591 57.3536 94.4217C57.1861 94.2525 56.9578 94.1534 56.7169 94.1453C56.476 94.1534 56.2477 94.2525 56.0802 94.4217C55.9127 94.591 55.8191 94.8171 55.8191 95.0524C55.8191 95.2877 55.9127 95.5138 56.0802 95.683C56.2477 95.8523 56.476 95.9514 56.7169 95.9595Z" fill="#272727"/>
<path d="M63.6021 78.5452C63.843 78.537 64.0712 78.4379 64.2387 78.2687C64.4061 78.0994 64.4997 77.8734 64.4997 77.6381C64.4997 77.4028 64.4061 77.1767 64.2387 77.0075C64.0712 76.8382 63.843 76.7391 63.6021 76.731C63.3612 76.7391 63.1329 76.8382 62.9654 77.0075C62.7979 77.1767 62.7043 77.4028 62.7043 77.6381C62.7043 77.8734 62.7979 78.0994 62.9654 78.2687C63.1329 78.4379 63.3612 78.537 63.6021 78.5452Z" fill="#272727"/>
<path d="M64.0769 72.8855C64.3178 72.8774 64.5461 72.7783 64.7135 72.6091C64.881 72.4399 64.9746 72.2138 64.9746 71.9785C64.9746 71.7433 64.881 71.5172 64.7135 71.348C64.5461 71.1788 64.3178 71.0797 64.0769 71.0715C63.836 71.0797 63.6078 71.1788 63.4403 71.348C63.2728 71.5172 63.1792 71.7433 63.1792 71.9785C63.1792 72.2138 63.2728 72.4399 63.4403 72.6091C63.6078 72.7783 63.836 72.8774 64.0769 72.8855Z" fill="#272727"/>
<path d="M63.8541 67.2262C64.095 67.2181 64.3233 67.119 64.4907 66.9497C64.6582 66.7805 64.7519 66.5544 64.7519 66.3191C64.7519 66.0838 64.6582 65.8577 64.4907 65.6885C64.3233 65.5192 64.095 65.4201 63.8541 65.412C63.6132 65.4201 63.3849 65.5192 63.2174 65.6885C63.0499 65.8577 62.9563 66.0838 62.9563 66.3191C62.9563 66.5544 63.0499 66.7805 63.2174 66.9497C63.3849 67.119 63.6132 67.2181 63.8541 67.2262Z" fill="#272727"/>
<path d="M63.4076 61.3477C63.6485 61.3396 63.8767 61.2405 64.0442 61.0713C64.2117 60.9021 64.3053 60.676 64.3053 60.4407C64.3053 60.2054 64.2117 59.9793 64.0442 59.8101C63.8767 59.6409 63.6485 59.5418 63.4076 59.5337C63.1666 59.5418 62.9384 59.6409 62.7709 59.8101C62.6034 59.9793 62.5098 60.2054 62.5098 60.4407C62.5098 60.676 62.6034 60.9021 62.7709 61.0713C62.9384 61.2405 63.1666 61.3396 63.4076 61.3477Z" fill="#272727"/>
<path d="M62.2926 53.9465C62.5335 53.9383 62.7618 53.8392 62.9292 53.67C63.0967 53.5008 63.1903 53.2747 63.1903 53.0394C63.1903 52.8042 63.0967 52.5781 62.9292 52.4089C62.7618 52.2397 62.5335 52.1406 62.2926 52.1324C62.0516 52.1406 61.8234 52.2397 61.6559 52.4089C61.4884 52.5781 61.3948 52.8042 61.3948 53.0394C61.3948 53.2747 61.4884 53.5008 61.6559 53.67C61.8234 53.8392 62.0516 53.9383 62.2926 53.9465Z" fill="#272727"/>
<path d="M61.6236 46.9813C61.8645 46.9732 62.0928 46.8741 62.2603 46.7049C62.4278 46.5356 62.5214 46.3095 62.5214 46.0742C62.5214 45.8389 62.4278 45.6128 62.2603 45.4436C62.0928 45.2744 61.8645 45.1752 61.6236 45.1671C61.3827 45.1752 61.1544 45.2744 60.9869 45.4436C60.8194 45.6128 60.7258 45.8389 60.7258 46.0742C60.7258 46.3095 60.8194 46.5356 60.9869 46.7049C61.1544 46.8741 61.3827 46.9732 61.6236 46.9813Z" fill="#272727"/>
<path d="M59.8393 40.4516C60.0802 40.4435 60.3085 40.3443 60.476 40.1751C60.6434 40.0059 60.737 39.7799 60.737 39.5446C60.737 39.3094 60.6434 39.0834 60.476 38.9142C60.3085 38.745 60.0802 38.6458 59.8393 38.6377C59.5984 38.6458 59.3702 38.745 59.2027 38.9142C59.0352 39.0834 58.9417 39.3094 58.9417 39.5446C58.9417 39.7799 59.0352 40.0059 59.2027 40.1751C59.3702 40.3443 59.5984 40.4435 59.8393 40.4516Z" fill="#272727"/>
<path d="M40.3526 77.3037C40.5935 77.2956 40.8218 77.1965 40.9893 77.0273C41.1568 76.858 41.2504 76.6319 41.2504 76.3966C41.2504 76.1613 41.1568 75.9352 40.9893 75.766C40.8218 75.5967 40.5935 75.4976 40.3526 75.4895C40.1117 75.4976 39.8834 75.5967 39.7159 75.766C39.5485 75.9352 39.4548 76.1613 39.4548 76.3966C39.4548 76.6319 39.5485 76.858 39.7159 77.0273C39.8834 77.1965 40.1117 77.2956 40.3526 77.3037Z" fill="#272727"/>
<path d="M42.6357 73.0142C42.8766 73.0061 43.1049 72.9069 43.2724 72.7377C43.4398 72.5685 43.5334 72.3425 43.5334 72.1072C43.5334 71.8719 43.4398 71.6459 43.2724 71.4767C43.1049 71.3075 42.8766 71.2083 42.6357 71.2002C42.3948 71.2083 42.1666 71.3075 41.9991 71.4767C41.8316 71.6459 41.738 71.8719 41.738 72.1072C41.738 72.3425 41.8316 72.5685 41.9991 72.7377C42.1666 72.9069 42.3948 73.0061 42.6357 73.0142Z" fill="#272727"/>
<path d="M47.4831 70.7774C47.724 70.7693 47.9523 70.6702 48.1198 70.501C48.2872 70.3318 48.3808 70.1058 48.3808 69.8705C48.3808 69.6353 48.2872 69.4092 48.1198 69.2401C47.9523 69.0709 47.724 68.9718 47.4831 68.9636C47.2422 68.9718 47.014 69.0709 46.8465 69.2401C46.6791 69.4092 46.5854 69.6353 46.5854 69.8705C46.5854 70.1058 46.6791 70.3318 46.8465 70.501C47.014 70.6702 47.2422 70.7693 47.4831 70.7774Z" fill="#272727"/>
<path d="M50.7785 67.2223C51.0195 67.2142 51.2477 67.1151 51.4152 66.9459C51.5827 66.7767 51.6762 66.5506 51.6762 66.3153C51.6762 66.0801 51.5827 65.854 51.4152 65.6848C51.2477 65.5156 51.0195 65.4165 50.7785 65.4083C50.5376 65.4165 50.3094 65.5156 50.1419 65.6848C49.9745 65.854 49.8809 66.0801 49.8809 66.3153C49.8809 66.5506 49.9745 66.7767 50.1419 66.9459C50.3094 67.1151 50.5376 67.2142 50.7785 67.2223Z" fill="#272727"/>
<path d="M54.2369 64.7447C54.4778 64.7366 54.7061 64.6375 54.8736 64.4683C55.0411 64.2991 55.1347 64.0731 55.1347 63.8378C55.1347 63.6026 55.0411 63.3765 54.8736 63.2073C54.7061 63.0381 54.4778 62.939 54.2369 62.9309C53.996 62.939 53.7677 63.0381 53.6002 63.2073C53.4327 63.3765 53.3391 63.6026 53.3391 63.8378C53.3391 64.0731 53.4327 64.2991 53.6002 64.4683C53.7677 64.6375 53.996 64.7366 54.2369 64.7447Z" fill="#272727"/>
<path d="M69.6529 60.4779C69.8938 60.4698 70.1221 60.3707 70.2896 60.2015C70.4571 60.0322 70.5507 59.8061 70.5507 59.5708C70.5507 59.3355 70.4571 59.1094 70.2896 58.9402C70.1221 58.7709 69.8938 58.6718 69.6529 58.6637C69.412 58.6718 69.1837 58.7709 69.0162 58.9402C68.8487 59.1094 68.7551 59.3355 68.7551 59.5708C68.7551 59.8061 68.8487 60.0322 69.0162 60.2015C69.1837 60.3707 69.412 60.4698 69.6529 60.4779Z" fill="#272727"/>
<path d="M208.333 247.401C210.643 246.516 212.909 245.577 215.127 244.558C216.23 244.036 217.329 243.513 218.394 242.934C219.466 242.368 220.521 241.774 221.526 241.112C223.57 239.865 225.407 238.321 226.974 236.533C228.543 234.716 229.463 232.451 229.597 230.079C229.794 231.298 229.723 232.544 229.389 233.735C229.045 234.94 228.49 236.078 227.748 237.098C226.24 239.098 224.359 240.803 222.204 242.122C220.095 243.445 217.85 244.551 215.507 245.422C213.189 246.312 210.786 246.975 208.333 247.401Z" fill="#272727"/>
<path d="M223.195 250.662C225.641 249.105 228.002 247.457 230.279 245.719C232.553 243.995 234.697 242.113 236.693 240.087C238.69 238.093 240.39 235.834 241.74 233.376C243.099 230.896 243.783 228.116 243.726 225.304C244.272 228.173 243.883 231.138 242.614 233.78C241.37 236.422 239.671 238.836 237.592 240.918C235.544 242.99 233.285 244.852 230.85 246.476C228.447 248.116 225.883 249.519 223.195 250.662Z" fill="#272727"/>
<path d="M201.061 70.4893C199.407 68.6823 197.718 66.9355 195.969 65.2595C195.084 64.4317 194.2 63.6075 193.273 62.8335C192.356 62.0493 191.419 61.29 190.434 60.6009C188.526 59.1635 186.404 58.0186 184.142 57.2058C181.852 56.4016 179.355 56.3462 177.03 57.048C178.133 56.4443 179.354 56.0761 180.614 55.9677C181.892 55.8643 183.178 55.977 184.416 56.3008C186.861 56.986 189.152 58.1149 191.169 59.6285C193.173 61.0994 195.016 62.7693 196.666 64.6114C198.327 66.4235 199.8 68.3925 201.061 70.4893Z" fill="#272727"/>
<path d="M197.603 50.7507C195.256 49.0532 192.853 47.4647 190.392 45.9853C187.945 44.503 185.392 43.1953 182.752 42.0724C180.142 40.9372 177.381 40.167 174.551 39.7846C171.696 39.4034 168.788 39.7436 166.106 40.7725C168.673 39.2756 171.656 38.6013 174.635 38.8445C177.606 39.0651 180.516 39.7809 183.238 40.9609C185.94 42.1149 188.514 43.535 190.92 45.1992C193.332 46.8281 195.57 48.6878 197.603 50.7507Z" fill="#272727"/>
<path d="M28.0077 0C26.4374 1.87603 24.9334 3.7773 23.5107 5.726C22.8112 6.70837 22.1152 7.68928 21.4767 8.70376C20.8262 9.70977 20.2043 10.7319 19.6609 11.7892C18.5042 13.8532 17.6771 16.0775 17.2079 18.3851C16.7519 20.7188 17.0859 23.134 18.1595 25.2663C17.3762 24.2973 16.8127 23.1769 16.5062 21.9795C16.2019 20.7642 16.115 19.5067 16.2492 18.2625C16.5606 15.7981 17.3452 13.413 18.5618 11.2323C19.7372 9.07048 21.1394 7.03364 22.7458 5.15449C24.3201 3.2701 26.0828 1.54342 28.0077 0Z" fill="#272727"/>
<path d="M8.57234 6.41724C7.22111 8.94456 5.98913 11.5099 4.87642 14.1134C3.75862 16.7037 2.83417 19.3694 2.11032 22.0898C1.3692 24.7831 1.0211 27.5649 1.07631 30.3531C1.1366 33.1652 1.93515 35.9152 3.39558 38.3401C1.47956 36.0995 0.331132 33.3291 0.111703 30.4185C-0.129126 27.5205 0.140708 24.6037 0.909482 21.7947C1.65509 19.0098 2.69007 16.3066 3.99833 13.7269C5.26998 11.1479 6.80225 8.69918 8.57234 6.41724Z" fill="#272727"/>
<path d="M131.232 170.614C127.203 172.463 123.158 174.276 119.112 176.088L113.046 178.81L106.968 181.502L106.669 180.287L107.009 180.265C107.173 180.254 107.335 180.304 107.462 180.406C107.589 180.507 107.671 180.652 107.693 180.811L107.696 180.828L110.691 203.263L113.54 225.714L112.638 224.799L130.634 227.512C136.632 228.424 142.621 229.389 148.609 230.359L184.518 236.311L184.433 236.305C187.347 236.248 190.254 235.991 193.131 235.536C196.014 235.106 198.851 234.42 201.607 233.489C204.363 232.602 206.945 231.264 209.242 229.533C211.523 227.82 213.173 225.433 213.948 222.729L213.935 222.848C213.706 218.039 213.515 213.229 213.254 208.422L212.492 193.999L211.709 179.577L210.956 165.154L212.319 166.011L196.7 172.332L181.084 178.597L181.072 178.602C180.943 178.653 180.806 178.683 180.667 178.691L162.279 179.623L143.89 180.503L125.497 181.307L107.101 182.052L107.048 182.054C106.763 182.065 106.483 181.97 106.267 181.788C106.05 181.606 105.912 181.351 105.88 181.074L103.95 163.889C103.312 158.166 102.653 152.446 102.057 146.719L100.227 129.542L98.4713 112.36L98.4703 112.35C98.4637 112.285 98.4816 112.22 98.5207 112.167C99.2441 111.174 100.149 110.319 101.19 109.646C102.23 108.996 103.368 108.508 104.561 108.196C104.592 108.188 104.626 108.191 104.654 108.206C104.683 108.221 104.704 108.247 104.713 108.277C104.723 108.307 104.72 108.34 104.705 108.368C104.691 108.396 104.665 108.417 104.634 108.427C103.49 108.782 102.408 109.306 101.427 109.981C100.47 110.67 99.6447 111.518 98.9903 112.486L99.0397 112.294L101.426 129.4L103.74 146.512C104.524 152.214 105.247 157.923 105.99 163.63L108.21 180.732L106.99 179.754L125.376 178.806L143.765 177.922L162.158 177.106L180.553 176.343L180.136 176.437L195.856 170.299L211.574 164.219L211.591 164.212C211.833 164.118 212.104 164.123 212.344 164.224C212.583 164.325 212.772 164.514 212.868 164.751C212.909 164.855 212.933 164.965 212.937 165.076L213.386 179.511L213.804 193.947L214.244 208.382C214.385 213.195 214.594 218.004 214.766 222.815L214.766 222.821C214.767 222.859 214.763 222.897 214.753 222.934C213.913 225.794 212.147 228.312 209.719 230.111C208.54 231.007 207.281 231.799 205.958 232.478C204.634 233.138 203.268 233.715 201.869 234.206C199.071 235.159 196.196 235.883 193.275 236.37C190.356 236.874 187.406 237.187 184.444 237.306C184.423 237.307 184.402 237.306 184.381 237.303L184.359 237.3L148.301 232.284C142.295 231.425 136.29 230.562 130.293 229.645L112.306 226.874L112.298 226.872C112.067 226.836 111.855 226.728 111.694 226.563C111.532 226.398 111.43 226.186 111.404 225.959L108.827 203.477L106.394 180.978L107.081 181.541L106.74 181.555L106.72 181.556C106.568 181.562 106.419 181.516 106.298 181.426C106.177 181.336 106.093 181.207 106.06 181.062C106.027 180.917 106.047 180.766 106.116 180.634C106.186 180.502 106.301 180.398 106.441 180.34C108.496 179.497 110.54 178.644 112.601 177.82L118.774 175.334C122.888 173.674 127.003 172.015 131.133 170.392C131.163 170.38 131.196 170.38 131.226 170.392C131.256 170.404 131.28 170.427 131.293 170.456C131.306 170.485 131.307 170.517 131.295 170.547C131.284 170.576 131.261 170.6 131.232 170.613L131.232 170.614Z" fill="#272727"/>
<path d="M214.351 222.832C212.985 227.958 208.456 231.205 203.321 233.261C203.959 234.181 204.796 234.954 205.773 235.524C206.75 236.095 207.843 236.45 208.976 236.564C210.108 236.679 211.252 236.55 212.328 236.186C213.404 235.823 214.385 235.234 215.203 234.461C216.021 233.688 216.655 232.749 217.061 231.711C217.468 230.673 217.636 229.561 217.555 228.453C217.474 227.344 217.145 226.267 216.591 225.296C216.038 224.325 215.273 223.484 214.351 222.832Z" fill="#272727"/>
<path d="M123.287 241.629C127.594 241.629 131.086 238.22 131.086 234.016C131.086 229.812 127.594 226.404 123.287 226.404C118.979 226.404 115.487 229.812 115.487 234.016C115.487 238.22 118.979 241.629 123.287 241.629Z" fill="#272727"/>
<path d="M98.686 112.266L112.888 113.099L127.296 113.989C132.127 114.31 136.972 114.62 141.828 114.98C146.681 115.332 151.54 115.69 156.39 116.094L156.1 116.122L164.151 113.979L172.221 111.901L188.361 107.744L188.37 107.742C188.461 107.718 188.558 107.731 188.639 107.777C188.721 107.824 188.78 107.9 188.804 107.989C188.808 108.004 188.811 108.02 188.813 108.035L189.835 116.266C190.179 119.009 190.543 121.75 190.927 124.488L192.054 132.705L193.244 140.915C193.258 141.011 193.238 141.109 193.188 141.193C193.137 141.276 193.06 141.341 192.967 141.376L192.955 141.38L176.27 147.666L159.55 153.859C159.464 153.891 159.374 153.908 159.282 153.911L159.266 153.911L145.405 154.248C140.785 154.368 136.165 154.468 131.544 154.549L117.681 154.769L103.816 154.913L103.799 154.913C103.594 154.915 103.395 154.842 103.241 154.708C103.088 154.575 102.991 154.391 102.968 154.191L101.816 143.589C101.426 140.056 101.101 136.541 100.745 133.038L98.686 112.266ZM98.8198 112.392L101.808 133.387C102.293 136.845 102.809 140.29 103.261 143.719L104.632 154L103.784 153.278L117.644 152.908L131.506 152.612C136.127 152.522 140.748 152.451 145.369 152.398L159.233 152.22L158.949 152.272L175.78 146.371L192.646 140.562L192.357 141.027L191.376 132.791L190.332 124.563C189.991 121.819 189.631 119.078 189.253 116.339L188.103 108.125L188.555 108.416L172.56 113.077L164.563 115.408L156.547 117.673C156.457 117.699 156.362 117.709 156.269 117.702L156.256 117.701C151.511 117.344 146.775 116.941 142.033 116.531C137.294 116.13 132.544 115.678 127.78 115.238L98.8198 112.392Z" fill="#272727"/>
<path d="M138.32 229.882L137.384 229.749L137.081 227.83L135.104 204.617L133.221 181.095L132.998 178.319L133.97 178.259C134.113 179.19 134.249 180.127 134.379 181.059C134.664 183.054 134.918 185.05 135.166 187.051C135.55 189.947 135.823 192.85 136.151 195.752L136.95 204.472L137.589 213.197C137.744 216.112 137.954 219.026 138.047 221.941C138.134 223.966 138.208 225.992 138.258 228.018C138.289 229.185 138.307 228.715 138.32 229.882Z" fill="#272727"/>
<path d="M164.626 233.792L163.616 233.647L163.325 232.056L161.014 207.386L158.591 180.127L158.486 177.88L159.322 177.838C159.496 178.896 159.484 179.027 159.645 180.085C160.066 182.86 160.444 185.642 160.803 188.423C161.231 191.55 161.547 194.688 161.918 197.82L162.86 207.229L163.634 216.649C163.833 219.8 164.087 222.938 164.229 226.088C164.341 228.144 164.44 230.194 164.52 232.25C164.558 233.272 164.595 232.77 164.626 233.792Z" fill="#272727"/>
<path d="M180.653 176.584L180.981 179.07L183.775 203.275L187.666 235.492L187.84 236.907C187.843 236.928 187.854 236.948 187.871 236.963C187.888 236.977 187.91 236.985 187.933 236.985C187.957 236.985 187.98 236.975 187.998 236.958C188.015 236.941 188.025 236.918 188.025 236.895V236.882C188.025 236.411 188.019 235.939 188.013 235.468C187.957 230.267 187.654 225.097 187.257 219.927C187.071 217.11 186.774 214.304 186.526 211.486C186.247 208.68 185.919 205.875 185.615 203.069L184.544 194.67C184.122 191.877 183.763 189.077 183.286 186.289C182.883 183.756 182.45 181.216 181.985 178.689C181.787 177.63 181.632 177.346 181.415 176.287L180.653 176.584Z" fill="#272727"/>
<path d="M204.629 233.629C204.332 233.762 204.035 233.895 203.731 234.016L203.526 232.244L199.989 201.817L196.718 172.617L196.54 170.692L197.426 170.359C197.587 171.26 197.604 171.281 197.752 172.182C198.236 175.078 198.69 177.975 199.115 180.871C199.66 184.324 200.082 187.783 200.565 191.235L201.829 201.617L202.932 212.018C203.241 215.489 203.607 218.96 203.855 222.436C204.103 225.563 204.338 228.695 204.524 231.827C204.561 232.425 204.598 233.03 204.629 233.629Z" fill="#272727"/>
<path d="M176.273 234.209C176.273 235.11 176.279 234.838 176.273 235.739C175.932 235.691 175.592 235.649 175.251 235.6L175.096 234.009L173.696 207.53L172.345 179.528L172.184 177.538C172.481 177.526 172.785 177.514 173.082 177.496C173.212 178.572 173.33 178.397 173.436 179.474C173.721 182.158 173.968 184.837 174.198 187.522C174.514 190.835 174.712 194.161 174.966 197.481L175.554 207.446L175.969 217.417C176.056 220.742 176.193 224.068 176.211 227.4C176.248 229.667 176.273 231.941 176.273 234.209Z" fill="#272727"/>
<path d="M124.064 225.756C124.07 226.984 124.07 228.217 124.058 229.451L123.141 229.318L122.881 225.569L121.394 204.091L119.963 181.512L119.814 179.112C120.124 179.094 120.44 179.075 120.75 179.057C120.867 179.868 120.979 180.672 121.084 181.482C121.351 183.556 121.592 185.636 121.821 187.716C122.15 190.419 122.361 193.134 122.627 195.837L123.253 203.97C123.401 206.685 123.575 209.4 123.705 212.115C123.798 214.83 123.947 217.545 123.977 220.266C124.021 222.092 124.05 223.922 124.064 225.756Z" fill="#272727"/>
<path d="M152.984 233.647L151.993 233.508L151.578 230.152L148.629 206.316L145.587 180.653L145.46 178.622L146.345 178.573C146.544 179.577 146.503 179.601 146.69 180.611C147.129 183.06 147.538 185.515 147.935 187.97C148.443 190.981 148.839 194.004 149.291 197.028L150.475 206.104L151.491 215.198C151.77 218.24 152.104 221.269 152.327 224.317C152.495 226.324 152.649 228.332 152.78 230.345C152.854 231.446 152.922 232.546 152.984 233.647Z" fill="#272727"/>
<path d="M140.996 158.617C140.7 158.248 140.465 157.836 140.3 157.395C140.141 156.982 140.024 156.554 139.951 156.118C139.877 155.682 139.848 155.24 139.865 154.798C139.878 154.329 139.967 153.865 140.129 153.423C140.426 153.792 140.662 154.204 140.826 154.645C140.986 155.059 141.102 155.487 141.174 155.923C141.247 156.359 141.275 156.801 141.258 157.243C141.245 157.711 141.157 158.175 140.996 158.617Z" fill="#272727"/>
<path d="M141.487 230.261C141.96 231.544 142.778 232.679 143.856 233.548C144.933 234.416 146.231 234.985 147.611 235.195C148.992 235.406 150.405 235.25 151.702 234.743C153 234.237 154.134 233.399 154.985 232.318L141.487 230.261Z" fill="#272727"/>
<path d="M80.8768 100.151C80.5984 100.062 80.3623 99.8778 80.2122 99.6325C80.062 99.3872 80.0078 99.0971 80.0597 98.8158C80.1116 98.5345 80.2661 98.2811 80.4945 98.1023C80.723 97.9235 81.01 97.8315 81.3026 97.8432L81.3694 97.8461C82.4817 97.9038 83.5968 97.9439 84.6991 98.0538L86.3575 98.1942L87.1864 98.2644C87.4638 98.2917 87.7959 98.3387 88.0976 98.3882C90.6084 98.8011 92.966 99.8446 94.9386 101.416C96.9241 102.993 98.4618 105.041 99.4049 107.364C99.8685 108.514 100.179 109.718 100.329 110.945L100.507 112.627L100.686 114.236L101.385 120.673L102.754 133.551C103.223 137.841 103.634 142.14 104.066 146.435C104.493 150.732 104.931 155.027 105.32 159.328C106.13 167.926 106.901 176.529 107.558 185.147C106.099 176.632 104.756 168.102 103.452 159.568C102.784 155.302 102.164 151.031 101.534 146.761C100.909 142.49 100.262 138.222 99.6741 133.946L97.8708 121.124L96.9844 114.712L96.7669 113.108C96.7142 112.595 96.6299 112.086 96.5144 111.583C96.2876 110.684 95.9688 109.809 95.5626 108.972C94.749 107.307 93.5911 105.824 92.1617 104.617C90.7324 103.409 89.0625 102.504 87.2572 101.957L84.1371 101.11C83.0644 100.838 82.0044 100.495 80.9413 100.171L80.8768 100.151Z" fill="#272727"/>
<path d="M55.4925 65.2758C56.1217 66.3826 56.7347 67.4971 57.3455 68.6128C57.9556 69.7289 58.5778 70.839 59.1703 71.9636L60.9666 75.328C61.5607 76.4517 62.1746 77.5659 62.7525 78.6974L62.6166 78.5363C64.3993 79.8428 66.2722 81.0279 68.2219 82.0831C69.1992 82.6032 70.186 83.1071 71.1988 83.5569C72.2022 84.0255 73.2228 84.4568 74.2604 84.8508C76.3313 85.6531 78.4529 86.3246 80.612 86.8611C82.781 87.3891 84.9863 87.7631 87.2107 87.9801L87.1885 87.9793C88.8428 88.0211 90.4971 88.0377 92.1514 88.0593L92.1141 88.0627C92.8587 87.9872 93.6097 88.1275 94.2731 88.466C94.9202 88.7686 95.5337 89.1351 96.1042 89.5598C97.2505 90.3917 98.2705 91.3777 99.134 92.4884C99.5924 93.0485 99.9423 93.6854 100.167 94.3679C100.222 94.5603 100.243 94.7609 100.226 94.9602C100.193 95.1606 100.12 95.3527 100.01 95.525C99.8338 95.8372 99.6432 96.1284 99.4467 96.4198C99.2483 96.7106 99.0489 96.9943 98.815 97.2784C98.7435 97.3702 98.6594 97.4519 98.5651 97.5212C98.4547 97.588 98.4032 97.6101 98.3188 97.6576L97.8571 97.9076C97.5475 98.074 97.2362 98.2394 96.9158 98.3973C96.7547 98.4758 96.5928 98.5532 96.4221 98.6255C96.2254 98.7183 96.0149 98.7798 95.7984 98.8077L96.1034 98.6143C95.9529 98.9446 95.7231 99.2347 95.4335 99.46C95.1303 99.6804 94.7734 99.8198 94.3981 99.8643C94.0461 99.901 93.6903 99.882 93.3445 99.808C93.0049 99.7402 92.6748 99.6333 92.361 99.4895L92.9584 99.2544C92.8807 99.4947 92.7711 99.7241 92.6325 99.9367C92.4816 100.166 92.2843 100.363 92.0526 100.515C91.8142 100.669 91.5433 100.769 91.2599 100.808C90.9766 100.848 90.6879 100.832 90.4109 100.762C90.315 100.739 90.2313 100.682 90.1756 100.603L90.1439 100.557C89.8104 100.045 89.4049 99.5815 88.9392 99.1795C88.469 98.7761 87.9471 98.4341 87.3865 98.162C86.8208 97.8858 86.2285 97.6648 85.6183 97.5024C85.0156 97.3368 84.3981 97.2278 83.7741 97.1771L83.7577 97.1759L83.7209 97.1719C79.6082 96.5544 75.5765 95.7576 71.5327 94.9336C67.4961 94.0912 63.4766 93.1884 59.478 92.1388C57.4213 91.6634 55.447 90.8963 53.6183 89.862C51.7936 88.8117 50.1686 87.4616 48.8148 85.8714C48.144 85.0805 47.5413 84.2368 47.0129 83.349C46.5028 82.4641 46.0391 81.5544 45.6237 80.6235L43.0673 75.1265C43.0607 75.1122 43.06 75.096 43.0654 75.0812C43.0708 75.0664 43.0819 75.0543 43.0963 75.0473C43.1107 75.0403 43.1273 75.0391 43.1426 75.0439C43.1579 75.0487 43.1708 75.0591 43.1784 75.0729L46.1043 80.3914C46.5959 81.2815 47.0381 82.1806 47.5968 83.0004C48.1436 83.8293 48.7595 84.6126 49.4384 85.3425C50.7952 86.7932 52.3815 88.0222 54.137 88.9826C55.0098 89.4607 55.9237 89.8636 56.8683 90.1867C57.8254 90.5054 58.7991 90.7746 59.7853 90.9933C63.7668 91.9581 67.7934 92.8096 71.8107 93.6751C75.8284 94.5208 79.8611 95.4078 83.8871 96.0672L83.8341 96.0621C84.5434 96.1257 85.2443 96.2594 85.926 96.461C86.6015 96.6604 87.255 96.9247 87.8771 97.25C88.5062 97.5774 89.0892 97.9829 89.6115 98.4566C90.1359 98.9347 90.5884 99.4829 90.9555 100.085L90.6887 99.8802C90.8359 99.9162 90.9884 99.9264 91.1393 99.9106C91.2912 99.8971 91.4381 99.8503 91.5689 99.7735C91.7039 99.6921 91.8202 99.5844 91.9107 99.4571C92.0123 99.3133 92.0947 99.1575 92.1559 98.9934L92.1658 98.9693C92.2074 98.868 92.2884 98.787 92.3912 98.744C92.4939 98.7011 92.61 98.6997 92.7137 98.7403L92.7535 98.7582C92.998 98.8802 93.256 98.9746 93.5224 99.0397C93.7812 99.1072 94.0494 99.1339 94.3168 99.1187C94.561 99.1005 94.7962 99.0209 94.9997 98.8878C95.2024 98.7405 95.3666 98.5485 95.4786 98.3274L95.5037 98.287C95.5329 98.2401 95.5741 98.2013 95.6231 98.1745C95.6722 98.1477 95.7276 98.1337 95.7838 98.1339C95.9152 98.1103 96.0435 98.0726 96.1664 98.0213C96.3205 97.9624 96.4772 97.8945 96.6334 97.8251C96.9462 97.6847 97.2586 97.5329 97.5709 97.3791L98.0405 97.1461L98.2573 97.037C98.2457 97.049 98.3347 96.9649 98.3777 96.9152C98.5937 96.6717 98.804 96.3966 99.0052 96.1231C99.2057 95.8482 99.4042 95.567 99.578 95.2843C99.6608 95.1689 99.7195 95.0388 99.7509 94.9013C99.7673 94.7583 99.7561 94.6135 99.7177 94.4745C99.5149 93.8463 99.1987 93.2584 98.784 92.7388C97.9589 91.6487 96.9803 90.6778 95.8772 89.8547C95.3317 89.4423 94.7399 89.0918 94.1131 88.81C93.5211 88.5109 92.8522 88.3877 92.1892 88.4555L92.1515 88.4589C90.4973 88.4818 88.843 88.4998 87.1887 88.5429L87.1796 88.5427L87.1663 88.542C84.8986 88.422 82.6431 88.1394 80.4179 87.6964C75.943 86.8162 71.6469 85.2235 67.7017 82.9822C65.7305 81.872 63.8401 80.6306 62.0439 79.2667L62.0397 79.2635C61.9842 79.221 61.9392 79.167 61.9078 79.1053C61.3369 77.9704 60.8019 76.8181 60.2471 75.6753L58.5969 72.2404C58.0405 71.0985 57.5139 69.9421 56.9751 68.7917C56.437 67.6409 55.9012 66.4891 55.3815 65.3294C55.3751 65.3151 55.3746 65.299 55.3801 65.2844C55.3855 65.2698 55.3966 65.2578 55.4108 65.2509C55.4251 65.244 55.4416 65.2427 55.4568 65.2474C55.472 65.252 55.4848 65.2622 55.4926 65.2758H55.4925Z" fill="#272727"/>
<path d="M88.4312 94.5903C89.416 95.0202 90.3138 95.6191 91.0819 96.3584C91.4719 96.73 91.8181 97.1429 92.1143 97.5895C92.444 98.0339 92.601 98.5783 92.5573 99.1253C92.3703 98.656 92.0873 98.2289 91.7255 97.87C91.379 97.5023 91.0201 97.1424 90.6489 96.7903C89.9084 96.0794 89.1419 95.3886 88.4312 94.5903Z" fill="#272727"/>
<path d="M91.4822 93.5732C92.552 94.0252 93.521 94.677 94.3344 95.4919C94.7503 95.9042 95.1047 96.3714 95.3875 96.8799C95.5478 97.1308 95.652 97.412 95.6933 97.7049C95.7345 97.9979 95.7119 98.2961 95.6269 98.58C95.5571 98.0442 95.3307 97.5393 94.9748 97.1258C94.6398 96.7 94.2777 96.2951 93.8908 95.9135C93.1137 95.1342 92.2809 94.3991 91.4822 93.5732Z" fill="#272727"/>
<path d="M98.3963 97.2915C97.8 96.4608 97.3245 95.6055 96.8173 94.7734C96.5721 94.3531 96.3085 93.9494 96.0384 93.5521C95.777 93.1416 95.4425 92.78 95.0508 92.4844C95.5788 92.583 96.0574 92.8525 96.4092 93.2493C96.7723 93.6167 97.0886 94.0256 97.3511 94.4672C97.8804 95.3352 98.2351 96.2937 98.3963 97.2915Z" fill="#272727"/>
<path d="M85.2903 96.8563L87.7109 97.7435L83.1957 99.3662L80.9448 98.9707L85.2903 96.8563Z" fill="#272727"/>
<path d="M96.5508 90.1428L98.5859 89.1019L99.5756 91.4711L98.5776 92.1339L96.5508 90.1428Z" fill="#272727"/>
<path d="M160.473 150.567C160.408 148.013 160.23 145.469 160.105 142.92C159.946 140.374 159.741 137.832 159.561 135.287L158.847 127.668C158.549 125.133 158.311 122.593 157.954 120.063C157.805 118.901 157.648 117.74 157.484 116.579L156.323 116.897L156.216 116.687L157.709 135.433L159.222 153.068L160.542 152.599C160.521 151.922 160.498 151.244 160.473 150.567Z" fill="#272727"/>
<path d="M171.441 146.831C171.376 144.278 171.198 141.733 171.073 139.184C170.914 136.639 170.709 134.096 170.529 131.552L169.815 123.932C169.518 121.397 169.279 118.858 168.922 116.327C168.773 115.165 168.616 114.004 168.452 112.843L167.291 113.162L167.184 112.951L168.678 131.698L170.19 149.332L171.51 148.864C171.489 148.186 171.466 147.508 171.441 146.831Z" fill="#272727"/>
<path d="M146.092 150.567C146.026 148.013 145.848 145.469 145.724 142.92C145.565 140.374 145.359 137.832 145.18 135.287L144.466 127.668C144.168 125.133 143.93 122.593 143.573 120.063C143.424 118.901 143.267 117.74 143.103 116.579L141.942 116.897L141.835 116.687L143.328 135.433L144.841 153.068L146.161 152.599C146.14 151.922 146.117 151.244 146.092 150.567Z" fill="#272727"/>
<path d="M130.337 151.971C130.272 149.17 130.094 146.379 129.969 143.584C129.81 140.791 129.605 138.003 129.425 135.212L128.711 126.855C128.413 124.074 128.175 121.289 127.818 118.513C127.669 117.239 127.512 115.965 127.348 114.692L126.187 115.041L126.08 114.81L127.573 135.372L129.086 154.714L130.406 154.2C130.385 153.457 130.362 152.714 130.337 151.971Z" fill="#272727"/>
<path d="M115.269 151.034C115.204 148.185 115.026 145.346 114.901 142.503C114.742 139.663 114.537 136.826 114.357 133.988L113.643 125.487C113.345 122.659 113.107 119.826 112.75 117.002C112.601 115.706 112.444 114.411 112.28 113.115L111.119 113.471L111.012 113.236L112.506 134.15L114.018 153.824L115.338 153.302C115.317 152.546 115.294 151.79 115.269 151.034Z" fill="#272727"/>
<path d="M184.086 143.286C184.02 140.733 183.842 138.189 183.717 135.64C183.559 133.094 183.353 130.552 183.174 128.007L182.46 120.388C182.162 117.853 181.924 115.313 181.567 112.783C181.418 111.621 181.26 111.223 181.097 110.062L179.936 110.381L179.829 110.17L181.322 128.153L182.835 144.908L184.155 144.44C184.155 144.44 184.111 143.964 184.086 143.286Z" fill="#272727"/>
<path d="M161.498 164.446C159.434 164.608 157.37 164.791 155.307 165.026L155.296 165.027C155.273 165.03 155.251 165.041 155.236 165.059C155.221 165.077 155.213 165.099 155.215 165.122C155.216 165.145 155.226 165.167 155.243 165.183C155.26 165.199 155.283 165.208 155.307 165.208L161.017 165.223C161.167 164.968 161.329 164.709 161.498 164.446Z" fill="#272727"/>
<path d="M211.944 164.114C209.858 163.993 207.772 163.892 205.686 163.811C202.887 163.672 200.088 163.649 197.289 163.562L188.893 163.486C186.094 163.516 183.295 163.52 180.496 163.572C178.573 163.629 176.651 163.664 174.728 163.725C173.871 164.366 172.922 164.881 171.912 165.253L188.893 165.298L213.024 165.234C213.024 164.949 212.912 164.674 212.711 164.466C212.511 164.258 212.237 164.132 211.944 164.114Z" fill="#272727"/>
<path d="M185.529 216.416L185.281 216.44L182.425 193.263L180.653 177.499L182.078 176.937C182.437 178.436 182.766 179.938 183.063 181.442C183.484 183.352 183.751 185.281 184.091 187.204C184.383 189.127 184.624 191.056 184.884 192.985C185.07 194.926 185.293 196.861 185.455 198.796C185.566 200.743 185.752 202.684 185.789 204.637C185.98 208.564 185.893 212.5 185.529 216.416Z" fill="#272727"/>
</svg>
